<?xml version="1.0" encoding="UTF-8" standalone="no"?>
<!-- Created with Inkscape (http://www.inkscape.org/) -->
<svg
   xmlns:dc="http://purl.org/dc/elements/1.1/"
   xmlns:cc="http://creativecommons.org/ns#"
   xmlns:rdf="http://www.w3.org/1999/02/22-rdf-syntax-ns#"
   xmlns:svg="http://www.w3.org/2000/svg"
   xmlns="http://www.w3.org/2000/svg"
   xmlns:sodipodi="http://sodipodi.sourceforge.net/DTD/sodipodi-0.dtd"
   xmlns:inkscape="http://www.inkscape.org/namespaces/inkscape"
   width="43.389999"
   height="74.574188"
   id="svg2460"
   sodipodi:version="0.32"
   inkscape:version="0.46"
   version="1.0"
   sodipodi:docname="Région Haute-Normandie.svg"
   inkscape:output_extension="org.inkscape.output.svg.inkscape">
  <defs
     id="defs2462">
    <inkscape:perspective
       sodipodi:type="inkscape:persp3d"
       inkscape:vp_x="0 : 526.18109 : 1"
       inkscape:vp_y="0 : 1000 : 0"
       inkscape:vp_z="744.09448 : 526.18109 : 1"
       inkscape:persp3d-origin="372.04724 : 350.78739 : 1"
       id="perspective2468" />
  </defs>
  <sodipodi:namedview
     id="base"
     pagecolor="#ffffff"
     bordercolor="#666666"
     borderopacity="1.0"
     inkscape:pageopacity="0.0"
     inkscape:pageshadow="2"
     inkscape:zoom="6.7985987"
     inkscape:cx="21.695"
     inkscape:cy="37.287094"
     inkscape:document-units="px"
     inkscape:current-layer="layer1"
     showgrid="false"
     inkscape:window-width="1024"
     inkscape:window-height="712"
     inkscape:window-x="-4"
     inkscape:window-y="-4" />
  <metadata
     id="metadata2465">
    <rdf:RDF>
      <cc:Work
         rdf:about="">
        <dc:format>image/svg+xml</dc:format>
        <dc:type
           rdf:resource="http://purl.org/dc/dcmitype/StillImage" />
      </cc:Work>
    </rdf:RDF>
  </metadata>
  <g
     inkscape:label="Calque 1"
     inkscape:groupmode="layer"
     id="layer1"
     transform="translate(-309.73357,-452.21795)">
    <path
       d="M 326.45357,452.89839 C 326.45357,452.89839 325.00482,453.45714 322.97982,453.45714 C 320.95607,453.45714 317.71607,452.72839 316.17857,452.64714 C 314.63982,452.56714 311.14357,452.54339 310.21982,453.52714 C 310.21982,453.52714 310.07982,454.62714 309.97357,455.56464 C 309.86857,456.50339 310.26232,459.43714 310.67107,462.52714 C 311.07982,465.61714 311.36232,470.04464 310.69357,472.48089 C 310.02357,474.91714 310.32732,480.60839 310.50857,481.97089 C 310.69107,483.33214 311.48107,492.00339 309.78107,495.56714 L 326.38607,495.56714 L 326.38607,483.18464 C 326.38607,483.18464 322.55482,482.45714 320.70232,483.10089 C 320.70232,483.10089 320.38857,479.93714 320.63232,478.56089 C 320.87482,477.18464 320.99732,475.65214 320.99732,475.65214 C 320.99732,475.65214 325.01732,475.69214 326.46857,475.99339 L 326.45357,452.89839"
       style="fill:#00a650;fill-opacity:1;fill-rule:nonzero;stroke:none"
       id="path31" />
    <path
       d="M 331.07857,487.87339 L 331.07857,495.64714 C 331.07857,495.64714 331.88857,495.14214 333.99357,495.56714 C 335.78482,495.92839 338.77107,495.40464 339.49982,495.32339 C 340.22857,495.24339 343.62982,495.08089 347.19357,495.48589 C 350.75607,495.89089 353.08357,495.02589 353.08357,495.02589 L 353.08357,487.38839 C 353.08357,487.38839 351.64732,488.03589 350.51357,488.35964 C 349.37982,488.68339 347.59732,489.00714 344.68232,488.11714 C 341.76732,487.22589 340.22857,487.54964 338.68982,487.95464 C 337.15107,488.35964 334.47982,488.68339 333.34607,488.35964 C 332.21232,488.03589 331.07857,487.87339 331.07857,487.87339"
       style="fill:#007dc5;fill-opacity:1;fill-rule:nonzero;stroke:none"
       id="path33" />
    <path
       d="M 353.10482,485.36339 L 353.10482,482.77214 C 353.10482,482.77214 351.52607,483.41964 350.02732,483.25839 C 348.52857,483.09589 346.94982,482.60964 343.71107,482.12464 C 340.47232,481.63839 337.62232,482.69339 336.25357,482.85464 C 334.88482,483.01464 332.34607,483.01339 331.59107,482.64964 L 331.59107,484.95839 C 331.59107,484.95839 333.18357,485.52589 336.58482,485.20089 C 339.98607,484.87714 340.92232,484.02714 343.38732,484.63464 C 345.85232,485.24214 348.56982,485.75339 349.29857,485.76839 C 351.36357,485.80839 353.10482,485.36339 353.10482,485.36339"
       style="fill:#007dc5;fill-opacity:1;fill-rule:nonzero;stroke:none"
       id="path35" />
    <path
       d="M 352.95232,481.09589 L 353.02357,478.64214 C 353.02357,478.64214 352.21357,479.20839 351.24232,478.96589 C 350.26982,478.72339 346.72232,478.45714 345.45982,478.63089 C 344.19732,478.80464 338.93357,479.45214 336.58482,479.28964 C 336.58482,479.28964 331.36982,479.43089 327.90357,478.46964 C 324.43732,477.50839 321.94982,477.79964 321.94982,477.79964 C 321.94982,477.79964 321.21857,480.25589 321.69482,480.90714 L 352.95232,481.09589"
       style="fill:#007dc5;fill-opacity:1;fill-rule:nonzero;stroke:none"
       id="path37" />
    <path
       d="M 327.67732,472.89214 L 327.67732,475.64589 C 327.67732,475.64589 327.43357,476.13214 328.48732,476.53714 C 329.53982,476.94089 333.61732,477.94714 337.12607,476.02714 C 337.12607,476.02714 332.45482,472.48714 327.67732,472.89214"
       style="fill:#ed1c24;fill-opacity:1;fill-rule:nonzero;stroke:none"
       id="path39" />
    <path
       d="M 349.46607,476.17339 L 352.57482,476.17339 C 352.57482,476.17339 352.49732,475.14464 352.48232,473.73214 L 352.48107,473.55589 C 352.47357,472.32714 352.51732,470.83964 352.69982,469.49089 C 352.89607,468.03339 352.87357,466.14714 352.79732,464.59464 C 352.71732,462.95589 352.57857,461.68964 352.57857,461.68964 L 352.55607,461.68964 L 352.47982,459.35589 L 352.49482,459.24714 C 352.43482,458.46214 352.08857,453.69339 352.38107,452.65089 C 352.38107,452.65089 347.67857,452.72839 343.22482,452.40464 C 338.77107,452.08089 333.21357,452.25214 332.26732,452.36964 C 331.32107,452.48589 327.63232,452.71589 327.63232,452.71589 C 327.63232,452.71589 327.19982,456.32964 327.68107,460.35964 C 327.90357,462.21839 327.94607,463.59464 327.93107,464.59464 C 327.91482,465.76464 327.81857,466.42089 327.83857,466.73839 C 327.83857,466.73839 327.83482,467.03464 327.82607,467.99839 C 327.80357,468.32714 330.04857,466.93464 330.11732,466.63339 C 330.11732,466.63339 329.20607,465.88089 329.13482,465.44214 C 329.06857,465.03214 329.32357,464.64089 329.35607,464.59464 L 329.35857,464.59089 C 329.35857,464.59089 330.45357,463.36214 330.52232,461.32589 C 330.52232,461.32589 329.22107,460.43589 329.01607,459.65964 C 329.01607,459.65964 331.23232,455.95214 331.80357,455.95964 C 331.80357,455.95964 331.21982,455.12089 331.55357,454.85589 C 331.55357,454.85589 332.53607,455.23964 332.85982,455.31964 C 333.18357,455.40089 334.80357,455.31964 335.93732,455.15839 C 337.07107,454.99589 337.83107,455.83339 337.69357,456.46714 C 337.69357,456.46714 340.14732,456.77714 339.41857,458.39714 C 339.41857,458.39714 339.33857,459.63464 337.47607,459.05714 C 337.47607,459.05714 335.53232,458.72089 335.45107,460.17839 C 335.36982,461.63589 336.26107,461.71714 336.26107,461.71714 C 336.26107,461.71714 337.20982,461.99089 337.44357,462.52214 C 337.44357,462.52214 337.84482,463.51964 336.74732,463.74214 C 335.64857,463.96339 335.45107,463.98464 335.45107,463.98464 C 335.45107,463.98464 335.92482,464.20839 336.62482,464.59464 C 338.22357,465.47714 341.00482,467.20964 342.04857,469.07589 L 339.58357,469.40964 C 339.58357,469.40964 342.73607,473.16214 345.53107,474.32339 C 345.53107,474.32339 345.83732,474.88839 347.84107,474.34964 C 349.84357,473.81214 350.51357,473.70214 350.51357,473.70214 C 350.51357,473.70214 349.47232,475.16089 349.46607,476.17339"
       style="fill:#ed1c24;fill-opacity:1;fill-rule:nonzero;stroke:none"
       id="path41" />
    <path
       d="M 352.50357,459.35589 C 351.65857,458.93964 350.99857,458.23589 351.05982,457.75589 C 351.12107,457.27714 351.42732,456.52839 351.42732,456.52839 C 350.47982,456.27964 347.39732,458.01339 347.39732,458.01339 L 346.92482,456.58464 C 345.60357,457.20089 345.16857,460.17839 345.16857,460.17839 C 344.75732,461.82214 342.55732,463.69089 341.37732,464.59464 C 340.92857,464.93839 340.62732,465.14339 340.62732,465.14339 L 342.74232,467.52714 C 343.15107,467.26339 346.46482,464.87589 348.08357,464.95714 C 349.60607,465.03214 349.91107,464.64214 349.94357,464.59464 C 349.94482,464.59214 349.94607,464.59089 349.94607,464.59089 C 349.78357,460.90339 352.57857,461.68964 352.57857,461.68964 L 352.50357,459.35589"
       style="fill:#fff200;fill-opacity:1;fill-rule:nonzero;stroke:none"
       id="path43" />
    <path
       d="M 336.71857,460.41089 C 336.71857,460.41089 337.96107,460.09839 339.98607,461.15089 C 342.00982,462.20339 342.27607,461.98339 342.27607,461.98339 C 342.27607,461.98339 340.87607,463.57964 339.58107,462.76964 C 338.28482,461.96089 337.66107,460.96589 336.71857,460.41089"
       style="fill:#fff200;fill-opacity:1;fill-rule:nonzero;stroke:none"
       id="path45" />
    <path
       d="M 327.82607,467.98714 C 327.81482,469.51839 327.78482,472.01714 327.67607,472.89214 C 332.45357,472.48714 337.12482,476.02714 337.12482,476.02714 C 337.12482,476.02714 345.17857,474.43214 349.46482,476.17339 C 349.46982,475.16089 350.51232,473.70214 350.51232,473.70214 C 350.51232,473.70214 349.84232,473.81214 347.83982,474.34964 C 345.83607,474.88839 345.52982,474.32339 345.52982,474.32339 C 342.73357,473.16214 339.58232,469.40964 339.58232,469.40964 L 342.04732,469.07589 C 341.00357,467.20964 338.22107,465.47714 336.62357,464.59464 C 335.92232,464.20839 335.44982,463.98464 335.44982,463.98464 C 335.44982,463.98464 335.64732,463.96339 336.74482,463.74214 C 337.84232,463.51964 337.44232,462.52214 337.44232,462.52214 C 337.20857,461.99089 336.25982,461.71714 336.25982,461.71714 C 336.25982,461.71714 335.36857,461.63589 335.44982,460.17839 C 335.53107,458.72089 337.47482,459.05714 337.47482,459.05714 C 339.33732,459.63464 339.41732,458.39714 339.41732,458.39714 C 340.14607,456.77714 337.69232,456.46714 337.69232,456.46714 C 337.82982,455.83339 337.06857,454.99589 335.93607,455.15839 C 334.80232,455.31964 333.18232,455.40089 332.85857,455.31964 C 332.53482,455.23964 331.55232,454.85589 331.55232,454.85589 C 331.21857,455.12089 331.80107,455.95964 331.80107,455.95964 C 331.23107,455.95214 329.01482,459.65964 329.01482,459.65964 C 329.21857,460.43589 330.52107,461.32589 330.52107,461.32589 C 330.45232,463.36214 329.35732,464.59089 329.35732,464.59089 L 329.35357,464.59464 C 329.32232,464.64089 329.06732,465.03214 329.13357,465.44214 C 329.20357,465.88089 330.11607,466.63339 330.11607,466.63339 C 330.04732,466.93464 327.80357,468.31714 327.82607,467.98714"
       style="fill:#fff200;fill-opacity:1;fill-rule:nonzero;stroke:none"
       id="path47" />
    <path
       d="M 309.77982,498.07089 L 311.19107,498.07089 C 312.52107,498.07089 312.65732,498.42589 312.65732,499.86589 C 312.65732,500.74839 312.53982,501.13089 311.79232,501.35964 L 311.79232,501.37714 C 312.41232,501.44089 312.62107,501.75964 312.62107,502.37964 L 312.62107,503.80964 C 312.62107,504.04589 312.62107,504.37464 312.67607,504.64714 L 311.81982,504.64714 C 311.72857,504.48339 311.70982,504.31964 311.70982,504.05589 L 311.70982,502.57089 C 311.70982,501.95089 311.60107,501.78714 310.99982,501.78714 L 310.68982,501.78714 L 310.68982,504.64714 L 309.77982,504.64714 L 309.77982,498.07089 z M 310.68982,501.02214 L 310.92732,501.02214 C 311.64607,501.02214 311.74732,500.88589 311.74732,499.90214 C 311.74732,498.92714 311.69232,498.83589 311.12732,498.83589 L 310.68982,498.83589 L 310.68982,501.02214"
       style="fill:#000000;fill-opacity:1;fill-rule:nonzero;stroke:none"
       id="path49" />
    <path
       d="M 318.31357,498.07089 L 320.79107,498.07089 L 320.79107,498.83589 L 319.22482,498.83589 L 319.22482,500.89464 L 320.69982,500.89464 L 320.69982,501.65964 L 319.22482,501.65964 L 319.22482,503.88214 L 320.79107,503.88214 L 320.79107,504.64714 L 318.31357,504.64714 L 318.31357,498.07089"
       style="fill:#000000;fill-opacity:1;fill-rule:nonzero;stroke:none"
       id="path51" />
    <path
       d="M 328.03357,499.81089 L 328.03357,499.47339 C 328.03357,499.00964 327.80607,498.72714 327.45107,498.72714 C 327.03107,498.72714 326.82232,499.10964 326.82232,499.81089 L 326.82232,503.12589 C 326.82232,503.65464 327.07732,503.99214 327.45107,503.99214 C 327.70607,503.99214 327.91482,503.95464 328.03357,503.92839 L 328.03357,501.99714 L 327.43232,501.99714 L 327.43232,501.23214 L 328.94482,501.23214 L 328.94482,504.53839 C 328.58857,504.61964 327.96107,504.70214 327.44107,504.70214 C 326.28482,504.70214 325.91107,504.09214 325.91107,503.07214 L 325.91107,499.74714 C 325.91107,498.51714 326.28482,498.01589 327.45982,498.01589 C 328.43357,498.01589 328.94482,498.37214 328.94482,499.20964 L 328.94482,499.81089 L 328.03357,499.81089"
       style="fill:#000000;fill-opacity:1;fill-rule:nonzero;stroke:none"
       id="path53" />
    <path
       d="M 334.75732,504.64714 L 335.66817,504.64714 L 335.66817,498.07089 L 334.75732,498.07089 L 334.75732,504.64714 z"
       style="fill:#000000;fill-opacity:1;fill-rule:nonzero;stroke:none"
       id="path55" />
    <path
       d="M 341.45482,499.74714 C 341.45482,498.82714 341.75482,498.01589 342.99357,498.01589 C 344.16857,498.01589 344.54232,498.62714 344.54232,499.64714 L 344.54232,502.97089 C 344.54232,503.89089 344.24232,504.70214 342.99357,504.70214 C 341.82857,504.70214 341.45482,504.09214 341.45482,503.07214 L 341.45482,499.74714 z M 342.36482,503.12589 C 342.36482,503.69089 342.61982,503.99214 342.99357,503.99214 C 343.37607,503.99214 343.63107,503.69089 343.63107,503.12589 L 343.63107,499.67464 C 343.63107,499.02714 343.41232,498.72714 342.99357,498.72714 C 342.58357,498.72714 342.36482,499.02714 342.36482,499.67464 L 342.36482,503.12589"
       style="fill:#000000;fill-opacity:1;fill-rule:nonzero;stroke:none"
       id="path57" />
    <path
       d="M 349.91732,498.07089 L 351.17482,498.07089 L 352.24982,503.53589 L 352.26732,503.53589 L 352.26732,498.07089 L 353.12357,498.07089 L 353.12357,504.64714 L 351.81232,504.64714 L 350.73732,499.03714 L 350.71982,499.03714 L 350.71982,504.64714 L 349.91732,504.64714 L 349.91732,498.07089"
       style="fill:#000000;fill-opacity:1;fill-rule:nonzero;stroke:none"
       id="path59" />
    <path
       d="M 309.73357,506.53589 L 310.99482,506.53589 L 310.99482,510.44589 L 312.67232,510.44589 L 312.67232,506.53589 L 313.93357,506.53589 L 313.93357,515.64089 L 312.67232,515.64089 L 312.67232,511.50464 L 310.99482,511.50464 L 310.99482,515.64089 L 309.73357,515.64089 L 309.73357,506.53589"
       style="fill:#000000;fill-opacity:1;fill-rule:nonzero;stroke:none"
       id="path61" />
    <path
       d="M 321.09732,506.53589 L 322.55982,506.53589 L 324.41482,515.64089 L 323.15357,515.64089 L 322.73732,513.32089 L 320.76982,513.32089 L 320.35357,515.64089 L 319.09232,515.64089 L 321.09732,506.53589 z M 320.95857,512.26089 L 322.55982,512.26089 L 321.77857,507.87339 L 321.75357,507.87339 L 320.95857,512.26089"
       style="fill:#000000;fill-opacity:1;fill-rule:nonzero;stroke:none"
       id="path63" />
    <path
       d="M 334.07107,513.58589 C 334.07107,514.64464 333.65607,515.71714 331.93982,515.71714 C 330.21232,515.71714 329.79607,514.64464 329.79607,513.58589 L 329.79607,506.53589 L 331.05732,506.53589 L 331.05732,513.79964 C 331.05732,514.41839 331.28482,514.73339 331.93982,514.73339 C 332.58357,514.73339 332.81107,514.41839 332.81107,513.79964 L 332.81107,506.53589 L 334.07107,506.53589 L 334.07107,513.58589"
       style="fill:#000000;fill-opacity:1;fill-rule:nonzero;stroke:none"
       id="path65" />
    <path
       d="M 339.56732,506.53589 L 343.85607,506.53589 L 343.85607,507.59589 L 342.34232,507.59589 L 342.34232,515.64089 L 341.08107,515.64089 L 341.08107,507.59589 L 339.56732,507.59589 L 339.56732,506.53589"
       style="fill:#000000;fill-opacity:1;fill-rule:nonzero;stroke:none"
       id="path67" />
    <path
       d="M 349.64982,506.53589 L 353.07982,506.53589 L 353.07982,507.59589 L 350.91107,507.59589 L 350.91107,510.44589 L 352.95357,510.44589 L 352.95357,511.50464 L 350.91107,511.50464 L 350.91107,514.58214 L 353.07982,514.58214 L 353.07982,515.64089 L 349.64982,515.64089 L 349.64982,506.53589"
       style="fill:#000000;fill-opacity:1;fill-rule:nonzero;stroke:none"
       id="path69" />
    <path
       d="M 309.79857,517.61214 L 311.52107,517.61214 L 312.99482,525.17839 L 313.01982,525.17839 L 313.01982,517.61214 L 314.19357,517.61214 L 314.19357,526.71714 L 312.39482,526.71714 L 310.92232,518.94839 L 310.89732,518.94839 L 310.89732,526.71714 L 309.79857,526.71714 L 309.79857,517.61214"
       style="fill:#000000;fill-opacity:1;fill-rule:nonzero;stroke:none"
       id="path71" />
    <path
       d="M 314.79232,519.93214 C 314.79232,518.65839 315.20482,517.53589 316.90232,517.53589 C 318.51357,517.53589 319.02482,518.38089 319.02482,519.79339 L 319.02482,524.39589 C 319.02482,525.66964 318.61357,526.79214 316.90232,526.79214 C 315.30482,526.79214 314.79232,525.94714 314.79232,524.53464 L 314.79232,519.93214 z M 316.04107,524.61089 C 316.04107,525.39214 316.39107,525.80839 316.90232,525.80839 C 317.42732,525.80839 317.77607,525.39214 317.77607,524.61089 L 317.77607,519.83089 C 317.77607,518.93589 317.47732,518.51964 316.90232,518.51964 C 316.34107,518.51964 316.04107,518.93589 316.04107,519.83089 L 316.04107,524.61089"
       style="fill:#000000;fill-opacity:1;fill-rule:nonzero;stroke:none"
       id="path73" />
    <path
       d="M 320.08607,517.61214 L 322.02232,517.61214 C 323.84482,517.61214 324.03232,518.10339 324.03232,520.09589 C 324.03232,521.31964 323.86982,521.84839 322.84607,522.16464 L 322.84607,522.18964 C 323.69482,522.27714 323.98232,522.71964 323.98232,523.57714 L 323.98232,525.55714 C 323.98232,525.88464 323.98232,526.33839 324.05732,526.71714 L 322.88357,526.71714 C 322.75857,526.48964 322.73357,526.26214 322.73357,525.89714 L 322.73357,523.84089 C 322.73357,522.98339 322.58357,522.75714 321.75982,522.75714 L 321.33482,522.75714 L 321.33482,526.71714 L 320.08607,526.71714 L 320.08607,517.61214 z M 321.33482,521.69714 L 321.65982,521.69714 C 322.64607,521.69714 322.78357,521.50839 322.78357,520.14714 C 322.78357,518.79714 322.70857,518.67089 321.93482,518.67089 L 321.33482,518.67089 L 321.33482,521.69714"
       style="fill:#000000;fill-opacity:1;fill-rule:nonzero;stroke:none"
       id="path75" />
    <path
       d="M 324.98232,517.61214 L 326.86982,517.61214 L 327.96232,524.54714 L 327.98607,524.54714 L 329.07857,517.61214 L 330.91857,517.61214 L 330.91857,526.71714 L 329.80232,526.71714 L 329.80232,518.51964 L 329.77857,518.51964 L 328.56732,526.71714 L 327.38107,526.71714 L 326.05107,518.51964 L 326.02732,518.51964 L 326.02732,526.71714 L 324.98232,526.71714 L 324.98232,517.61214"
       style="fill:#000000;fill-opacity:1;fill-rule:nonzero;stroke:none"
       id="path77" />
    <path
       d="M 333.35107,517.61214 L 334.75607,517.61214 L 336.53732,526.71714 L 335.32607,526.71714 L 334.92607,524.39589 L 333.03607,524.39589 L 332.63607,526.71714 L 331.42482,526.71714 L 333.35107,517.61214 z M 333.21732,523.33714 L 334.75607,523.33714 L 334.00482,518.94839 L 333.98107,518.94839 L 333.21732,523.33714"
       style="fill:#000000;fill-opacity:1;fill-rule:nonzero;stroke:none"
       id="path79" />
    <path
       d="M 336.94857,517.61214 L 338.67232,517.61214 L 340.14482,525.17839 L 340.16982,525.17839 L 340.16982,517.61214 L 341.34357,517.61214 L 341.34357,526.71714 L 339.54607,526.71714 L 338.07232,518.94839 L 338.04732,518.94839 L 338.04732,526.71714 L 336.94857,526.71714 L 336.94857,517.61214"
       style="fill:#000000;fill-opacity:1;fill-rule:nonzero;stroke:none"
       id="path81" />
    <path
       d="M 342.26482,517.61214 L 344.27482,517.61214 C 346.29732,517.61214 346.45982,518.29214 346.45982,520.94089 L 346.45982,523.65214 C 346.45982,525.98464 346.04857,526.71714 344.07482,526.71714 L 342.26482,526.71714 L 342.26482,517.61214 z M 343.51357,525.65714 L 344.11232,525.65714 C 345.03607,525.65714 345.21107,525.16589 345.21107,523.60214 L 345.21107,520.47464 C 345.21107,519.12464 345.07357,518.67089 344.01232,518.67089 L 343.51357,518.67089 L 343.51357,525.65714"
       style="fill:#000000;fill-opacity:1;fill-rule:nonzero;stroke:none"
       id="path83" />
    <path
       d="M 347.04607,526.71714 L 348.29456,526.71714 L 348.29456,517.61214 L 347.04607,517.61214 L 347.04607,526.71714 z"
       style="fill:#000000;fill-opacity:1;fill-rule:nonzero;stroke:none"
       id="path85" />
    <path
       d="M 349.70607,517.61214 L 353.10232,517.61214 L 353.10232,518.67089 L 350.95482,518.67089 L 350.95482,521.52089 L 352.97732,521.52089 L 352.97732,522.58089 L 350.95482,522.58089 L 350.95482,525.65714 L 353.10232,525.65714 L 353.10232,526.71714 L 349.70607,526.71714 L 349.70607,517.61214"
       style="fill:#000000;fill-opacity:1;fill-rule:nonzero;stroke:none"
       id="path87" />
  </g>
</svg>
