<?xml version="1.0" encoding="UTF-8" standalone="no"?>
<!-- Created with Inkscape (http://www.inkscape.org/) -->

<svg
   xmlns:dc="http://purl.org/dc/elements/1.1/"
   xmlns:cc="http://creativecommons.org/ns#"
   xmlns:rdf="http://www.w3.org/1999/02/22-rdf-syntax-ns#"
   xmlns:svg="http://www.w3.org/2000/svg"
   xmlns="http://www.w3.org/2000/svg"
   xmlns:xlink="http://www.w3.org/1999/xlink"
   xmlns:sodipodi="http://sodipodi.sourceforge.net/DTD/sodipodi-0.dtd"
   xmlns:inkscape="http://www.inkscape.org/namespaces/inkscape"
   width="2979.9211"
   height="4212.9922"
   id="svg2"
   version="1.1"
   inkscape:version="0.91 r13725"
   sodipodi:docname="partenaires.svg"
   inkscape:export-filename="/home/n3mo/recherche/fablab/workspace/arduiciole/poster/fds2015-posters-rendu-final/poster-a0-partenaires-preview.png"
   inkscape:export-xdpi="45"
   inkscape:export-ydpi="45">
  <defs
     id="defs4">
    <linearGradient
       inkscape:collect="always"
       xlink:href="#linearGradient4138"
       id="linearGradient3262"
       gradientUnits="userSpaceOnUse"
       gradientTransform="matrix(2.8515918,0,0,7.6106757,2.7664007e-5,-5519.179)"
       x1="573.7514"
       y1="852.35205"
       x2="582.90869"
       y2="441.46771" />
    <linearGradient
       inkscape:collect="always"
       id="linearGradient4138">
      <stop
         style="stop-color:#482c8b;stop-opacity:1;"
         offset="0"
         id="stop4140" />
      <stop
         style="stop-color:#161620;stop-opacity:1"
         offset="1"
         id="stop4142" />
    </linearGradient>
    <radialGradient
       inkscape:collect="always"
       xlink:href="#linearGradient4156"
       id="radialGradient3079"
       gradientUnits="userSpaceOnUse"
       gradientTransform="matrix(1.4036754,0,0,1.4036754,28.48888,195.26549)"
       cx="274.50894"
       cy="504.1019"
       fx="274.50894"
       fy="504.1019"
       r="27.02158" />
    <linearGradient
       inkscape:collect="always"
       id="linearGradient4156">
      <stop
         style="stop-color:#c4c20d;stop-opacity:1;"
         offset="0"
         id="stop4158" />
      <stop
         style="stop-color:#c4c20d;stop-opacity:0;"
         offset="1"
         id="stop4160" />
    </linearGradient>
    <radialGradient
       inkscape:collect="always"
       xlink:href="#linearGradient4156"
       id="radialGradient3073"
       gradientUnits="userSpaceOnUse"
       gradientTransform="matrix(1.4036754,0,0,1.4036754,79.70833,171.61865)"
       cx="274.50894"
       cy="504.1019"
       fx="274.50894"
       fy="504.1019"
       r="27.02158" />
    <radialGradient
       inkscape:collect="always"
       xlink:href="#linearGradient4156"
       id="radialGradient3077"
       gradientUnits="userSpaceOnUse"
       gradientTransform="matrix(1.4036754,0,0,1.4036754,-2.5925,62.517897)"
       cx="274.50894"
       cy="504.1019"
       fx="274.50894"
       fy="504.1019"
       r="27.02158" />
    <radialGradient
       inkscape:collect="always"
       xlink:href="#linearGradient4156"
       id="radialGradient3075"
       gradientUnits="userSpaceOnUse"
       gradientTransform="matrix(1.4036754,0,0,1.4036754,-334.56733,122.43003)"
       cx="274.50894"
       cy="504.1019"
       fx="274.50894"
       fy="504.1019"
       r="27.02158" />
    <radialGradient
       inkscape:collect="always"
       xlink:href="#linearGradient4156"
       id="radialGradient3097"
       gradientUnits="userSpaceOnUse"
       gradientTransform="matrix(1.4036754,0,0,1.4036754,-250.46608,-94.144538)"
       cx="274.50894"
       cy="504.1019"
       fx="274.50894"
       fy="504.1019"
       r="27.02158" />
    <radialGradient
       inkscape:collect="always"
       xlink:href="#linearGradient4156"
       id="radialGradient3093"
       gradientUnits="userSpaceOnUse"
       gradientTransform="matrix(1.4036754,0,0,1.4036754,-250.46608,-94.144538)"
       cx="274.50894"
       cy="504.1019"
       fx="274.50894"
       fy="504.1019"
       r="27.02158" />
    <linearGradient
       y2="441.46771"
       x2="582.90869"
       y1="852.35205"
       x1="573.7514"
       gradientTransform="matrix(2.8515918,0,0,7.6106757,2.1269531e-5,-2358.5489)"
       gradientUnits="userSpaceOnUse"
       id="linearGradient3244"
       xlink:href="#linearGradient4138"
       inkscape:collect="always" />
    <radialGradient
       inkscape:collect="always"
       xlink:href="#linearGradient4156"
       id="radialGradient3088"
       gradientUnits="userSpaceOnUse"
       gradientTransform="matrix(1.4036754,0,0,1.4036754,-250.46608,-94.144538)"
       cx="274.50894"
       cy="504.1019"
       fx="274.50894"
       fy="504.1019"
       r="27.02158" />
    <radialGradient
       inkscape:collect="always"
       xlink:href="#linearGradient4156"
       id="radialGradient3092"
       gradientUnits="userSpaceOnUse"
       gradientTransform="matrix(1.4036754,0,0,1.4036754,-250.46608,-94.144538)"
       cx="274.50894"
       cy="504.1019"
       fx="274.50894"
       fy="504.1019"
       r="27.02158" />
    <radialGradient
       inkscape:collect="always"
       xlink:href="#linearGradient4156"
       id="radialGradient3096"
       gradientUnits="userSpaceOnUse"
       gradientTransform="matrix(1.4036754,0,0,1.4036754,-250.46608,-94.144538)"
       cx="274.50894"
       cy="504.1019"
       fx="274.50894"
       fy="504.1019"
       r="27.02158" />
    <radialGradient
       inkscape:collect="always"
       xlink:href="#linearGradient4156"
       id="radialGradient3100"
       gradientUnits="userSpaceOnUse"
       gradientTransform="matrix(3.9363818,0,0,3.9363818,-3953.7596,-131.37289)"
       cx="274.50894"
       cy="504.1019"
       fx="274.50894"
       fy="504.1019"
       r="27.02158" />
    <radialGradient
       inkscape:collect="always"
       xlink:href="#linearGradient4156"
       id="radialGradient3104"
       gradientUnits="userSpaceOnUse"
       gradientTransform="matrix(1.4036754,0,0,1.4036754,-250.46608,-94.144538)"
       cx="274.50894"
       cy="504.1019"
       fx="274.50894"
       fy="504.1019"
       r="27.02158" />
    <radialGradient
       inkscape:collect="always"
       xlink:href="#linearGradient4156"
       id="radialGradient3108"
       gradientUnits="userSpaceOnUse"
       gradientTransform="matrix(3.9363818,0,0,3.9363818,-1635.4593,-1209.6205)"
       cx="274.50894"
       cy="504.1019"
       fx="274.50894"
       fy="504.1019"
       r="27.02158" />
    <radialGradient
       inkscape:collect="always"
       xlink:href="#linearGradient4156"
       id="radialGradient3112"
       gradientUnits="userSpaceOnUse"
       gradientTransform="matrix(3.9363818,0,0,3.9363818,-1662.9111,579.16305)"
       cx="274.50894"
       cy="504.1019"
       fx="274.50894"
       fy="504.1019"
       r="27.02158" />
    <filter
       inkscape:collect="always"
       style="color-interpolation-filters:sRGB"
       id="filter5990"
       x="-0.036965284"
       width="1.0739306"
       y="-0.068426331"
       height="1.1368527">
      <feGaussianBlur
         inkscape:collect="always"
         stdDeviation="16.372418"
         id="feGaussianBlur5992" />
    </filter>
    <filter
       inkscape:collect="always"
       style="color-interpolation-filters:sRGB"
       id="filter6126"
       x="-0.037607009"
       width="1.075214"
       y="-0.066331126"
       height="1.1326623">
      <feGaussianBlur
         inkscape:collect="always"
         stdDeviation="15.65"
         id="feGaussianBlur6128" />
    </filter>
    <filter
       inkscape:collect="always"
       style="color-interpolation-filters:sRGB"
       id="filter6258"
       x="-0.039507692"
       width="1.0790154"
       y="-0.061142857"
       height="1.1222857">
      <feGaussianBlur
         inkscape:collect="always"
         stdDeviation="12.0375"
         id="feGaussianBlur6260" />
    </filter>
    <filter
       inkscape:collect="always"
       style="color-interpolation-filters:sRGB"
       id="filter6764"
       x="-0.049099601"
       width="1.0981992"
       y="-0.046948572"
       height="1.0938971">
      <feGaussianBlur
         inkscape:collect="always"
         stdDeviation="12.32811"
         id="feGaussianBlur6766" />
    </filter>
    <filter
       inkscape:collect="always"
       style="color-interpolation-filters:sRGB"
       id="filter7450"
       x="-0.051292969"
       width="1.1025859"
       y="-0.12074483"
       height="1.2414897">
      <feGaussianBlur
         inkscape:collect="always"
         stdDeviation="20.517187"
         id="feGaussianBlur7452" />
    </filter>
    <filter
       inkscape:collect="always"
       style="color-interpolation-filters:sRGB"
       id="filter7586"
       x="-0.050862163"
       width="1.1017243"
       y="-0.1232013"
       height="1.2464026">
      <feGaussianBlur
         inkscape:collect="always"
         stdDeviation="25.204017"
         id="feGaussianBlur7588" />
    </filter>
    <radialGradient
       inkscape:collect="always"
       xlink:href="#linearGradient4156"
       id="radialGradient7598"
       cx="486.11447"
       cy="-1684.8367"
       fx="486.11447"
       fy="-1684.8367"
       r="457.69974"
       gradientUnits="userSpaceOnUse"
       gradientTransform="matrix(1.209693,0,0,1.209693,13.984792,82.819448)" />
    <radialGradient
       inkscape:collect="always"
       xlink:href="#linearGradient4156"
       id="radialGradient7598-0"
       cx="486.11447"
       cy="-1684.8367"
       fx="486.11447"
       fy="-1684.8367"
       r="457.69974"
       gradientUnits="userSpaceOnUse"
       gradientTransform="matrix(1.209693,0,0,1.209693,1002.4176,268.54027)" />
    <radialGradient
       inkscape:collect="always"
       xlink:href="#linearGradient4156"
       id="radialGradient7598-0-9"
       cx="486.11447"
       cy="-1684.8367"
       fx="486.11447"
       fy="-1684.8367"
       r="457.69974"
       gradientUnits="userSpaceOnUse"
       gradientTransform="matrix(1.209693,0,0,1.209693,496.36005,1158.5038)" />
    <radialGradient
       inkscape:collect="always"
       xlink:href="#linearGradient4156"
       id="radialGradient7598-0-9-3"
       cx="486.11447"
       cy="-1684.8367"
       fx="486.11447"
       fy="-1684.8367"
       r="457.69974"
       gradientUnits="userSpaceOnUse"
       gradientTransform="matrix(1.209693,0,0,1.209693,1967.168,1063.7738)" />
    <radialGradient
       inkscape:collect="always"
       xlink:href="#linearGradient4156"
       id="radialGradient7598-0-9-1"
       cx="486.11447"
       cy="-1684.8367"
       fx="486.11447"
       fy="-1684.8367"
       r="457.69974"
       gradientUnits="userSpaceOnUse"
       gradientTransform="matrix(1.209693,0,0,1.209693,2004.5613,1961.216)" />
    <radialGradient
       inkscape:collect="always"
       xlink:href="#linearGradient4156"
       id="radialGradient7598-0-9-2"
       cx="486.11447"
       cy="-1684.8367"
       fx="486.11447"
       fy="-1684.8367"
       r="457.69974"
       gradientUnits="userSpaceOnUse"
       gradientTransform="matrix(1.209693,0,0,1.209693,-7.2046547,1774.2488)" />
    <filter
       inkscape:collect="always"
       style="color-interpolation-filters:sRGB"
       id="filter4563"
       x="-0.034245"
       width="1.06849"
       y="-0.037944598"
       height="1.0758892">
      <feGaussianBlur
         inkscape:collect="always"
         stdDeviation="14.26875"
         id="feGaussianBlur4565" />
    </filter>
    <radialGradient
       inkscape:collect="always"
       xlink:href="#linearGradient4156"
       id="radialGradient7598-0-9-1-6"
       cx="486.11447"
       cy="-1684.8367"
       fx="486.11447"
       fy="-1684.8367"
       r="457.69974"
       gradientUnits="userSpaceOnUse"
       gradientTransform="matrix(1.4587406,0,0,1.4587406,-323.31236,1281.6894)" />
    <filter
       inkscape:collect="always"
       style="color-interpolation-filters:sRGB"
       id="filter4986"
       x="-0.072892836"
       width="1.1457857"
       y="-0.33922484"
       height="1.6784497">
      <feGaussianBlur
         inkscape:collect="always"
         stdDeviation="19.028394"
         id="feGaussianBlur4988" />
    </filter>
    <radialGradient
       inkscape:collect="always"
       xlink:href="#linearGradient4156"
       id="radialGradient7598-0-9-1-6-3"
       cx="486.11447"
       cy="-1684.8367"
       fx="486.11447"
       fy="-1684.8367"
       r="457.69974"
       gradientUnits="userSpaceOnUse"
       gradientTransform="matrix(1.4587406,0,0,1.4587406,-646.16406,1308.9299)" />
    <filter
       style="color-interpolation-filters:sRGB;"
       inkscape:label="Drop Shadow"
       id="filter5438">
      <feFlood
         flood-opacity="0.498039"
         flood-color="rgb(33,6,77)"
         result="flood"
         id="feFlood5440" />
      <feComposite
         in="flood"
         in2="SourceGraphic"
         operator="in"
         result="composite1"
         id="feComposite5442" />
      <feGaussianBlur
         in="composite1"
         stdDeviation="3"
         result="blur"
         id="feGaussianBlur5444" />
      <feOffset
         dx="6"
         dy="6"
         result="offset"
         id="feOffset5446" />
      <feComposite
         in="SourceGraphic"
         in2="offset"
         operator="over"
         result="composite2"
         id="feComposite5448" />
    </filter>
    <filter
       inkscape:collect="always"
       style="color-interpolation-filters:sRGB"
       id="filter4386"
       x="-0.027510584"
       width="1.0550212"
       y="-0.052067308"
       height="1.1041346">
      <feGaussianBlur
         inkscape:collect="always"
         stdDeviation="8.9355247"
         id="feGaussianBlur4388" />
    </filter>
    <radialGradient
       inkscape:collect="always"
       xlink:href="#linearGradient4156"
       id="radialGradient7598-5"
       cx="486.11447"
       cy="-1684.8367"
       fx="486.11447"
       fy="-1684.8367"
       r="457.69974"
       gradientUnits="userSpaceOnUse"
       gradientTransform="matrix(1.0679636,0,0,1.0679636,2721.7947,161.03503)" />
    <inkscape:perspective
       id="perspective2468"
       inkscape:persp3d-origin="372.04724 : 350.78739 : 1"
       inkscape:vp_z="744.09448 : 526.18109 : 1"
       inkscape:vp_y="0 : 1000 : 0"
       inkscape:vp_x="0 : 526.18109 : 1"
       sodipodi:type="inkscape:persp3d" />
    <radialGradient
       inkscape:collect="always"
       xlink:href="#linearGradient4156"
       id="radialGradient7598-3"
       cx="486.11447"
       cy="-1684.8367"
       fx="486.11447"
       fy="-1684.8367"
       r="457.69974"
       gradientUnits="userSpaceOnUse"
       gradientTransform="matrix(1.0679636,0,0,1.0679636,3810.698,167.05752)" />
    <filter
       inkscape:collect="always"
       style="color-interpolation-filters:sRGB"
       id="filter5413"
       x="-0.048936516"
       width="1.097873"
       y="-0.02847306"
       height="1.0569461">
      <feGaussianBlur
         inkscape:collect="always"
         stdDeviation="0.88473143"
         id="feGaussianBlur5415" />
    </filter>
  </defs>
  <sodipodi:namedview
     id="base"
     pagecolor="#ffffff"
     bordercolor="#666666"
     borderopacity="1.0"
     inkscape:pageopacity="0.0"
     inkscape:pageshadow="2"
     inkscape:zoom="0.42426407"
     inkscape:cx="1118.9373"
     inkscape:cy="1739.0544"
     inkscape:document-units="mm"
     inkscape:current-layer="layer2"
     showgrid="true"
     width="1280px"
     inkscape:window-width="3840"
     inkscape:window-height="2031"
     inkscape:window-x="0"
     inkscape:window-y="55"
     inkscape:window-maximized="1"
     inkscape:snap-grids="false"
     inkscape:snap-page="true"
     inkscape:snap-center="true"
     inkscape:snap-object-midpoints="true"
     inkscape:snap-midpoints="true"
     inkscape:snap-smooth-nodes="true"
     inkscape:object-nodes="true"
     inkscape:object-paths="true"
     inkscape:snap-intersection-paths="true"
     units="mm"
     inkscape:snap-global="false"
     borderlayer="true">
    <inkscape:grid
       type="xygrid"
       id="grid2985"
       empspacing="5"
       visible="true"
       enabled="false"
       snapvisiblegridlinesonly="true"
       color="#000000"
       opacity="0.0627451"
       empcolor="#000000"
       empopacity="0.1254902"
       units="mm" />
  </sodipodi:namedview>
  <metadata
     id="metadata7">
    <rdf:RDF>
      <cc:Work
         rdf:about="">
        <dc:format>image/svg+xml</dc:format>
        <dc:type
           rdf:resource="http://purl.org/dc/dcmitype/StillImage" />
        <dc:title />
      </cc:Work>
    </rdf:RDF>
  </metadata>
  <g
     inkscape:groupmode="layer"
     id="layer2"
     inkscape:label="Fond"
     transform="translate(0,3.828125e-4)">
    <rect
       style="display:inline;fill:url(#linearGradient3244);fill-opacity:1;stroke:none"
       id="rect4136"
       width="2979.9211"
       height="4212.9922"
       x="0"
       y="0" />
    <circle
       transform="matrix(-2.8043391,0,0,2.8043391,2668.3269,1346.1974)"
       r="37.929527"
       cy="902.86096"
       cx="413.8103"
       id="circle3069"
       style="display:inline;opacity:0.672;fill:url(#radialGradient3079);fill-opacity:1;stroke:none" />
    <circle
       transform="matrix(-2.8043391,0,0,2.8043391,2505.6995,1237.7791)"
       r="37.929527"
       cy="879.21405"
       cx="465.02979"
       id="circle3063"
       style="display:inline;fill:url(#radialGradient3073);fill-opacity:1;stroke:none" />
    <circle
       transform="matrix(-2.8043391,0,0,2.8043391,2668.3269,1346.1974)"
       r="37.929527"
       cy="770.1134"
       cx="382.72894"
       id="circle3067"
       style="display:inline;opacity:0.822;fill:url(#radialGradient3077);fill-opacity:1;stroke:none" />
    <circle
       style="display:inline;fill:url(#radialGradient3112);fill-opacity:1;stroke:none"
       id="circle3110"
       cx="-582.33905"
       cy="2563.5007"
       r="106.36726"
       transform="scale(-1,1)" />
    <image
       sodipodi:absref="/home/n3mo/recherche/fablab/workspace/arduiciole/assets/tree.png"
       y="1166.814"
       x="249.55785"
       id="image4291"
       xlink:href="file:///home/n3mo/recherche/fablab/workspace/arduiciole/assets/tree.png"
       preserveAspectRatio="none"
       height="2828.9917"
       width="3492.0088" />
    <circle
       transform="matrix(-2.8043391,0,0,2.8043391,2668.3269,1346.1974)"
       r="37.929527"
       cy="830.02551"
       cx="50.754143"
       id="circle3065"
       style="display:inline;fill:url(#radialGradient3075);fill-opacity:1;stroke:none" />
    <image
       sodipodi:absref="/home/n3mo/recherche/fablab/workspace/arduiciole/assets/grass.png"
       y="3063.3743"
       x="-1031.5134"
       id="image5105"
       xlink:href="file:///home/n3mo/recherche/fablab/workspace/arduiciole/assets/grass.png"
       preserveAspectRatio="none"
       height="1169.2914"
       width="5314.9604" />
    <circle
       transform="scale(-1,1)"
       r="106.36726"
       cy="1852.965"
       cx="-2873.1875"
       id="circle3098"
       style="display:inline;opacity:0.70099996;fill:url(#radialGradient3100);fill-opacity:1;stroke:none" />
    <circle
       style="display:inline;fill:url(#radialGradient3097);fill-opacity:1;stroke:none"
       id="circle3095"
       cx="134.85536"
       cy="613.45099"
       r="37.929527"
       transform="matrix(-2.8043391,0,0,2.8043391,1005.9137,1755.7774)" />
    <circle
       transform="matrix(-2.8043391,0,0,2.8043391,656.56595,1237.7791)"
       r="37.929527"
       cy="613.45099"
       cx="134.85536"
       id="circle3091"
       style="display:inline;opacity:0.60399996;fill:url(#radialGradient3093);fill-opacity:1;stroke:none" />
    <circle
       style="display:inline;fill:url(#radialGradient3088);fill-opacity:1;stroke:none"
       id="circle3086"
       cx="134.85536"
       cy="613.45099"
       r="37.929527"
       transform="matrix(-2.8043391,0,0,2.8043391,2969.5491,-361.98639)" />
    <circle
       transform="matrix(-2.8043391,0,0,2.8043391,2412.3567,540.80629)"
       r="37.929527"
       cy="613.45099"
       cx="134.85536"
       id="circle3090"
       style="display:inline;fill:url(#radialGradient3092);fill-opacity:1;stroke:none" />
    <circle
       style="display:inline;fill:url(#radialGradient3096);fill-opacity:1;stroke:none"
       id="circle3094"
       cx="134.85536"
       cy="613.45099"
       r="37.929527"
       transform="matrix(-2.8043391,0,0,2.8043391,1029.9554,131.72836)" />
    <circle
       style="display:inline;fill:url(#radialGradient3104);fill-opacity:1;stroke:none"
       id="circle3102"
       cx="134.85536"
       cy="613.45099"
       r="37.929527"
       transform="matrix(-2.8043391,0,0,2.8043391,1982.1196,907.56582)" />
    <circle
       transform="scale(-1,1)"
       r="106.36726"
       cy="774.71729"
       cx="-554.88733"
       id="circle3106"
       style="display:inline;fill:url(#radialGradient3108);fill-opacity:1;stroke:none" />
  </g>
  <g
     inkscape:label="Logos"
     inkscape:groupmode="layer"
     id="layer1"
     transform="translate(0,3160.6304)"
     sodipodi:insensitive="true">
    <text
       sodipodi:linespacing="125%"
       id="text3895"
       y="-2002.3434"
       x="-1307.3005"
       style="font-style:normal;font-variant:normal;font-weight:normal;font-stretch:normal;font-size:72px;line-height:125%;font-family:Comfortaa;-inkscape-font-specification:Comfortaa;text-align:center;letter-spacing:0px;word-spacing:0px;text-anchor:middle;fill:#b04242;fill-opacity:0.75098039;stroke:none"
       xml:space="preserve"><tspan
         style="font-size:144px;font-family:'Exo 2.0';-inkscape-font-specification:'Exo 2.0';fill:#b04242;fill-opacity:0.75098039"
         y="-2002.3434"
         x="-1307.3005"
         id="tspan3897"
         sodipodi:role="line">UFR ST</tspan><tspan
         style="font-size:144px;font-family:'Exo 2.0';-inkscape-font-specification:'Exo 2.0';fill:#b04242;fill-opacity:0.75098039"
         y="-1822.3434"
         x="-1307.3005"
         sodipodi:role="line"
         id="tspan7694">SMAI</tspan></text>
    <g
       id="g4847"
       transform="translate(-1827.2919,-4.9857897)">
      <image
         sodipodi:absref="/home/n3mo/recherche/fablab/workspace/arduiciole/poster/partenaires/../../assets/moon.png"
         xlink:href="../../assets/moon.png"
         style="display:inline"
         y="-3160.0837"
         x="1793.5359"
         id="image4246"
         preserveAspectRatio="none"
         height="1155.6094"
         width="1189.3146" />
    </g>
    <g
       id="g7720"
       transform="matrix(0.88283855,0,0,0.88283855,33.417851,192.91933)">
      <circle
         r="551.86163"
         cy="-263.88666"
         cx="580.84448"
         id="path7590-1-6-8"
         style="opacity:0.75;fill:url(#radialGradient7598-0-9-2);fill-opacity:1;stroke:none;stroke-width:3.6290791;stroke-linecap:round;stroke-linejoin:round;stroke-miterlimit:4;stroke-dasharray:none;stroke-dashoffset:0;stroke-opacity:1" />
      <g
         transform="matrix(0.77596575,0,0,0.77596575,-2091.2669,-57.865447)"
         id="g5994">
        <image
           sodipodi:absref="/home/n3mo/recherche/fablab/workspace/arduiciole/assets/logo-univ-lehavre-mask.png"
           y="-552.62787"
           x="2912.0984"
           id="image5911"
           xlink:href="file:///home/n3mo/recherche/fablab/workspace/arduiciole/assets/logo-univ-lehavre-mask.png"
           preserveAspectRatio="none"
           height="574.24976"
           width="1062.9921"
           style="filter:url(#filter5990)" />
        <image
           sodipodi:absref="/home/n3mo/recherche/fablab/workspace/arduiciole/assets/logo-univ-lehavre.png"
           y="-552.62787"
           x="2912.0984"
           id="image5826"
           xlink:href="file:///home/n3mo/recherche/fablab/workspace/arduiciole/assets/logo-univ-lehavre.png"
           preserveAspectRatio="none"
           height="574.24982"
           width="1062.9921" />
      </g>
    </g>
    <g
       id="g7714"
       transform="matrix(0.88283855,0,0,0.88283855,160.38973,-311.47349)">
      <circle
         r="551.86163"
         cy="-974.36163"
         cx="2555.2173"
         id="path7590-1-6-0"
         style="opacity:0.75;fill:url(#radialGradient7598-0-9-3);fill-opacity:1;stroke:none;stroke-width:3.6290791;stroke-linecap:round;stroke-linejoin:round;stroke-miterlimit:4;stroke-dasharray:none;stroke-dashoffset:0;stroke-opacity:1" />
      <g
         transform="matrix(0.82489199,0,0,0.82489199,2409.81,-186.98492)"
         id="g6122">
        <image
           style="filter:url(#filter6126)"
           sodipodi:absref="/home/n3mo/recherche/fablab/workspace/arduiciole/assets/logo-sahn-mask.png"
           y="-1237.646"
           x="-323.10071"
           id="image6119"
           xlink:href="file:///home/n3mo/recherche/fablab/workspace/arduiciole/assets/logo-sahn-mask.png"
           preserveAspectRatio="none"
           height="566.25"
           width="998.75" />
        <image
           sodipodi:absref="/home/n3mo/recherche/fablab/workspace/arduiciole/assets/logo-sahn.png"
           y="-1237.646"
           x="-323.10071"
           id="image6057"
           xlink:href="file:///home/n3mo/recherche/fablab/workspace/arduiciole/assets/logo-sahn.png"
           preserveAspectRatio="none"
           height="566.25"
           width="998.75" />
      </g>
    </g>
    <g
       id="g7726"
       transform="matrix(0.88283855,0,0,0.88283855,306.04485,-42.812273)">
      <circle
         r="551.86163"
         cy="-76.919533"
         cx="2592.6106"
         id="path7590-1-6-7"
         style="opacity:0.75;fill:url(#radialGradient7598-0-9-1);fill-opacity:1;stroke:none;stroke-width:3.6290791;stroke-linecap:round;stroke-linejoin:round;stroke-miterlimit:4;stroke-dasharray:none;stroke-dashoffset:0;stroke-opacity:1" />
      <g
         transform="matrix(1.1226782,0,0,1.1226782,2814.2578,2307.7619)"
         id="g6254">
        <image
           style="filter:url(#filter6258)"
           sodipodi:absref="/home/n3mo/recherche/fablab/workspace/arduiciole/assets/logo-urcom-mask.png"
           y="-2360.3506"
           x="-563.05219"
           id="image6251"
           xlink:href="file:///home/n3mo/recherche/fablab/workspace/arduiciole/assets/logo-urcom-mask.png"
           preserveAspectRatio="none"
           height="472.5"
           width="731.25" />
        <image
           sodipodi:absref="/home/n3mo/recherche/fablab/workspace/arduiciole/assets/logo-urcom.png"
           y="-2360.3506"
           x="-563.05219"
           id="image6189"
           xlink:href="file:///home/n3mo/recherche/fablab/workspace/arduiciole/assets/logo-urcom.png"
           preserveAspectRatio="none"
           height="472.5"
           width="731.25" />
      </g>
    </g>
    <g
       id="g7702"
       transform="matrix(0.88283855,0,0,0.88283855,-13.339447,2.9262047)">
      <circle
         r="551.86163"
         cy="-1769.5951"
         cx="1590.4668"
         id="path7590-1"
         style="opacity:0.75;fill:url(#radialGradient7598-0);fill-opacity:1;stroke:none;stroke-width:3.6290791;stroke-linecap:round;stroke-linejoin:round;stroke-miterlimit:4;stroke-dasharray:none;stroke-dashoffset:0;stroke-opacity:1" />
      <g
         transform="matrix(1.3385601,0,0,1.3385601,-690.29719,861.06008)"
         id="g6760">
        <image
           style="filter:url(#filter6764)"
           sodipodi:absref="/home/n3mo/recherche/fablab/workspace/arduiciole/assets/logo-bu-mask.png"
           y="-2280.3923"
           x="1402.5931"
           id="image6757"
           xlink:href="file:///home/n3mo/recherche/fablab/workspace/arduiciole/assets/logo-bu-mask.png"
           preserveAspectRatio="none"
           height="630.21008"
           width="602.60089" />
        <image
           sodipodi:absref="/home/n3mo/recherche/fablab/workspace/arduiciole/assets/logo-bu.png"
           y="-2280.3923"
           x="1402.5931"
           id="image6695"
           xlink:href="file:///home/n3mo/recherche/fablab/workspace/arduiciole/assets/logo-bu.png"
           preserveAspectRatio="none"
           height="630.21008"
           width="602.60089" />
      </g>
    </g>
    <g
       id="g7696"
       transform="matrix(0.88283855,0,0,0.88283855,1731.5407,-120.13216)">
      <circle
         r="551.86163"
         cy="-1955.3158"
         cx="602.03406"
         id="path7590"
         style="opacity:0.75;fill:url(#radialGradient7598);fill-opacity:1;stroke:none;stroke-width:3.6290791;stroke-linecap:round;stroke-linejoin:round;stroke-miterlimit:4;stroke-dasharray:none;stroke-dashoffset:0;stroke-opacity:1" />
      <g
         transform="matrix(0.83688374,0,0,0.83688374,-1670.9495,-1506.0275)"
         id="g7446">
        <image
           style="filter:url(#filter7450)"
           sodipodi:absref="/home/n3mo/recherche/fablab/workspace/arduiciole/assets/logo-litis-mask.png"
           y="-740.76489"
           x="2236.0088"
           id="image7443"
           xlink:href="file:///home/n3mo/recherche/fablab/workspace/arduiciole/assets/logo-litis-mask.png"
           preserveAspectRatio="none"
           height="407.8125"
           width="960" />
        <image
           sodipodi:absref="/home/n3mo/recherche/fablab/workspace/arduiciole/assets/logo-litis.png"
           y="-740.76489"
           x="2236.0088"
           id="image7381"
           xlink:href="file:///home/n3mo/recherche/fablab/workspace/arduiciole/assets/logo-litis.png"
           preserveAspectRatio="none"
           height="407.8125"
           width="960" />
      </g>
    </g>
    <g
       id="g7708"
       transform="matrix(0.88283855,0,0,0.88283855,-387.28384,-440.5733)">
      <circle
         r="551.86163"
         cy="-879.63165"
         cx="1084.4092"
         id="path7590-1-6"
         style="opacity:0.75;fill:url(#radialGradient7598-0-9);fill-opacity:1;stroke:none;stroke-width:3.6290791;stroke-linecap:round;stroke-linejoin:round;stroke-miterlimit:4;stroke-dasharray:none;stroke-dashoffset:0;stroke-opacity:1" />
      <g
         transform="matrix(0.67606696,0,0,0.67606696,-707.13242,-513.30858)"
         id="g7578">
        <image
           style="filter:url(#filter7586)"
           sodipodi:absref="/home/n3mo/recherche/fablab/workspace/arduiciole/assets/logo-lmah-mask.png"
           y="-787.33545"
           x="2055.3042"
           id="image7575"
           xlink:href="file:///home/n3mo/recherche/fablab/workspace/arduiciole/assets/logo-lmah-mask.png"
           preserveAspectRatio="none"
           height="490.98215"
           width="1189.2856" />
        <image
           sodipodi:absref="/home/n3mo/recherche/fablab/workspace/arduiciole/assets/logo-lmah.png"
           y="-787.33545"
           x="2055.3042"
           id="image7513"
           xlink:href="file:///home/n3mo/recherche/fablab/workspace/arduiciole/assets/logo-lmah.png"
           preserveAspectRatio="none"
           height="490.98215"
           width="1189.2856" />
      </g>
    </g>
    <g
       id="g4567"
       transform="matrix(0.73211344,0,0,0.73211344,220.91865,-54.89979)">
      <g
         id="g4595"
         transform="translate(1634.4318,520.97513)">
        <circle
           style="opacity:0.75;fill:url(#radialGradient7598-0-9-1-6);fill-opacity:1;stroke:none;stroke-width:3.6290791;stroke-linecap:round;stroke-linejoin:round;stroke-miterlimit:4;stroke-dasharray:none;stroke-dashoffset:0;stroke-opacity:1"
           id="path7590-1-6-7-5"
           cx="385.80255"
           cy="-1176.0507"
           r="665.47705" />
        <image
           sodipodi:absref="/home/n3mo/recherche/fablab/workspace/arduiciole/assets/logo-smai-mask.png"
           y="-1627.3007"
           x="-114.19746"
           id="image4544"
           xlink:href="file:///home/n3mo/recherche/fablab/workspace/arduiciole/assets/logo-smai-mask.png"
           preserveAspectRatio="none"
           height="902.5"
           width="1000"
           style="filter:url(#filter4563)" />
        <image
           sodipodi:absref="/home/n3mo/recherche/fablab/workspace/arduiciole/assets/logo-smai.png"
           y="-1627.3007"
           x="-114.19745"
           id="image4466"
           xlink:href="file:///home/n3mo/recherche/fablab/workspace/arduiciole/assets/logo-smai.png"
           preserveAspectRatio="none"
           height="902.5"
           width="1000" />
      </g>
    </g>
    <g
       id="g5054"
       transform="translate(539.96597,27.618999)">
      <circle
         r="665.47705"
         cy="-1148.8102"
         cx="62.950783"
         id="path7590-1-6-7-5-8"
         style="opacity:0.75;fill:url(#radialGradient7598-0-9-1-6-3);fill-opacity:1;stroke:none;stroke-width:3.6290791;stroke-linecap:round;stroke-linejoin:round;stroke-miterlimit:4;stroke-dasharray:none;stroke-dashoffset:0;stroke-opacity:1"
         transform="matrix(0.73211344,0,0,0.73211344,355.26893,180.8025)" />
      <text
         sodipodi:linespacing="125%"
         id="text4600-5"
         y="-595.5694"
         x="186.64413"
         style="font-style:normal;font-weight:normal;font-size:15px;line-height:125%;font-family:sans-serif;letter-spacing:0px;word-spacing:0px;fill:#c4c20d;fill-opacity:1;stroke:none;stroke-width:1px;stroke-linecap:butt;stroke-linejoin:miter;stroke-opacity:1;filter:url(#filter4986)"
         xml:space="preserve"><tspan
           style="font-style:normal;font-variant:normal;font-weight:900;font-stretch:normal;font-size:125px;font-family:'Exo 2.0';-inkscape-font-specification:'Exo 2.0 Heavy';fill:#c4c20d;fill-opacity:1"
           y="-595.5694"
           x="186.64413"
           id="tspan4602-1"
           sodipodi:role="line">UFR ST</tspan></text>
      <text
         sodipodi:linespacing="125%"
         id="text4600"
         y="-595.5694"
         x="186.64413"
         style="font-style:normal;font-weight:normal;font-size:15px;line-height:125%;font-family:sans-serif;letter-spacing:0px;word-spacing:0px;fill:#000000;fill-opacity:1;stroke:none;stroke-width:1px;stroke-linecap:butt;stroke-linejoin:miter;stroke-opacity:1"
         xml:space="preserve"><tspan
           style="font-style:normal;font-variant:normal;font-weight:900;font-stretch:normal;font-size:125px;font-family:'Exo 2.0';-inkscape-font-specification:'Exo 2.0 Heavy';fill:#efefef;fill-opacity:1"
           y="-595.5694"
           x="186.64413"
           id="tspan4602"
           sodipodi:role="line">UFR ST</tspan></text>
    </g>
    <g
       id="g4390"
       transform="translate(-2013.5702,2013.2605)">
      <circle
         r="487.20471"
         cy="-1638.3094"
         cx="3240.9473"
         id="path7590-12"
         style="opacity:0.75;fill:url(#radialGradient7598-5);fill-opacity:1;stroke:none;stroke-width:3.6290791;stroke-linecap:round;stroke-linejoin:round;stroke-miterlimit:4;stroke-dasharray:none;stroke-dashoffset:0;stroke-opacity:1" />
      <image
         style="filter:url(#filter4386)"
         width="779.52759"
         height="411.8757"
         preserveAspectRatio="none"
         xlink:href="file:///home/n3mo/recherche/fablab/workspace/arduiciole/assets/LogoMRT-mask.png"
         id="image4383"
         x="2851.1833"
         y="-1844.2473"
         sodipodi:absref="/home/n3mo/recherche/fablab/workspace/arduiciole/assets/LogoMRT-mask.png" />
      <image
         width="779.52759"
         height="411.8757"
         preserveAspectRatio="none"
         xlink:href="file:///home/n3mo/recherche/fablab/workspace/arduiciole/assets/LogoMRT.png"
         id="image4321"
         x="2851.1833"
         y="-1844.2473"
         sodipodi:absref="/home/n3mo/recherche/fablab/workspace/arduiciole/assets/LogoMRT.png" />
    </g>
    <g
       id="g5417"
       transform="translate(-2203.2848,2172.4234)">
      <circle
         style="opacity:0.75;fill:url(#radialGradient7598-3);fill-opacity:1;stroke:none;stroke-width:3.6290791;stroke-linecap:round;stroke-linejoin:round;stroke-miterlimit:4;stroke-dasharray:none;stroke-dashoffset:0;stroke-opacity:1"
         id="path7590-7"
         cx="4329.8506"
         cy="-1632.2869"
         r="487.20471" />
      <g
         style="fill:#c4c20d;fill-opacity:1;filter:url(#filter5413)"
         inkscape:label="Calque 1"
         id="layer1-5-5"
         transform="matrix(9.0276319,0,0,9.0276319,1337.8355,-6051.3582)">
        <path
           inkscape:connector-curvature="0"
           d="m 326.45357,452.89839 c 0,0 -1.44875,0.55875 -3.47375,0.55875 -2.02375,0 -5.26375,-0.72875 -6.80125,-0.81 -1.53875,-0.08 -5.035,-0.10375 -5.95875,0.88 0,0 -0.14,1.1 -0.24625,2.0375 -0.105,0.93875 0.28875,3.8725 0.6975,6.9625 0.40875,3.09 0.69125,7.5175 0.0225,9.95375 -0.67,2.43625 -0.36625,8.1275 -0.185,9.49 0.1825,1.36125 0.9725,10.0325 -0.7275,13.59625 l 16.605,0 0,-12.3825 c 0,0 -3.83125,-0.7275 -5.68375,-0.0838 0,0 -0.31375,-3.16375 -0.07,-4.54 0.2425,-1.37625 0.365,-2.90875 0.365,-2.90875 0,0 4.02,0.04 5.47125,0.34125 l -0.015,-23.095"
           style="fill:#c4c20d;fill-opacity:1;fill-rule:nonzero;stroke:none"
           id="path31-9" />
        <path
           inkscape:connector-curvature="0"
           d="m 331.07857,487.87339 0,7.77375 c 0,0 0.81,-0.505 2.915,-0.08 1.79125,0.36125 4.7775,-0.1625 5.50625,-0.24375 0.72875,-0.08 4.13,-0.2425 7.69375,0.1625 3.5625,0.405 5.89,-0.46 5.89,-0.46 l 0,-7.6375 c 0,0 -1.43625,0.6475 -2.57,0.97125 -1.13375,0.32375 -2.91625,0.6475 -5.83125,-0.2425 -2.915,-0.89125 -4.45375,-0.5675 -5.9925,-0.1625 -1.53875,0.405 -4.21,0.72875 -5.34375,0.405 -1.13375,-0.32375 -2.2675,-0.48625 -2.2675,-0.48625"
           style="fill:#c4c20d;fill-opacity:1;fill-rule:nonzero;stroke:none"
           id="path33-5" />
        <path
           inkscape:connector-curvature="0"
           d="m 353.10482,485.36339 0,-2.59125 c 0,0 -1.57875,0.6475 -3.0775,0.48625 -1.49875,-0.1625 -3.0775,-0.64875 -6.31625,-1.13375 -3.23875,-0.48625 -6.08875,0.56875 -7.4575,0.73 -1.36875,0.16 -3.9075,0.15875 -4.6625,-0.205 l 0,2.30875 c 0,0 1.5925,0.5675 4.99375,0.2425 3.40125,-0.32375 4.3375,-1.17375 6.8025,-0.56625 2.465,0.6075 5.1825,1.11875 5.91125,1.13375 2.065,0.04 3.80625,-0.405 3.80625,-0.405"
           style="fill:#c4c20d;fill-opacity:1;fill-rule:nonzero;stroke:none"
           id="path35-3" />
        <path
           inkscape:connector-curvature="0"
           d="m 352.95232,481.09589 0.0713,-2.45375 c 0,0 -0.81,0.56625 -1.78125,0.32375 -0.9725,-0.2425 -4.52,-0.50875 -5.7825,-0.335 -1.2625,0.17375 -6.52625,0.82125 -8.875,0.65875 0,0 -5.215,0.14125 -8.68125,-0.82 -3.46625,-0.96125 -5.95375,-0.67 -5.95375,-0.67 0,0 -0.73125,2.45625 -0.255,3.1075 l 31.2575,0.18875"
           style="fill:#c4c20d;fill-opacity:1;fill-rule:nonzero;stroke:none"
           id="path37-0" />
        <path
           inkscape:connector-curvature="0"
           d="m 327.67732,472.89214 0,2.75375 c 0,0 -0.24375,0.48625 0.81,0.89125 1.0525,0.40375 5.13,1.41 8.63875,-0.51 0,0 -4.67125,-3.54 -9.44875,-3.135"
           style="fill:#c4c20d;fill-opacity:1;fill-rule:nonzero;stroke:none"
           id="path39-0" />
        <path
           inkscape:connector-curvature="0"
           d="m 349.46607,476.17339 3.10875,0 c 0,0 -0.0775,-1.02875 -0.0925,-2.44125 l -0.001,-0.17625 c -0.007,-1.22875 0.0362,-2.71625 0.21875,-4.065 0.19625,-1.4575 0.17375,-3.34375 0.0975,-4.89625 -0.08,-1.63875 -0.21875,-2.905 -0.21875,-2.905 l -0.0225,0 -0.0762,-2.33375 0.015,-0.10875 c -0.06,-0.785 -0.40625,-5.55375 -0.11375,-6.59625 0,0 -4.7025,0.0775 -9.15625,-0.24625 -4.45375,-0.32375 -10.01125,-0.1525 -10.9575,-0.035 -0.94625,0.11625 -4.635,0.34625 -4.635,0.34625 0,0 -0.4325,3.61375 0.0487,7.64375 0.2225,1.85875 0.265,3.235 0.25,4.235 -0.0162,1.17 -0.1125,1.82625 -0.0925,2.14375 0,0 -0.004,0.29625 -0.0125,1.26 -0.0225,0.32875 2.2225,-1.06375 2.29125,-1.365 0,0 -0.91125,-0.7525 -0.9825,-1.19125 -0.0662,-0.41 0.18875,-0.80125 0.22125,-0.8475 l 0.002,-0.004 c 0,0 1.095,-1.22875 1.16375,-3.265 0,0 -1.30125,-0.89 -1.50625,-1.66625 0,0 2.21625,-3.7075 2.7875,-3.7 0,0 -0.58375,-0.83875 -0.25,-1.10375 0,0 0.9825,0.38375 1.30625,0.46375 0.32375,0.0813 1.94375,0 3.0775,-0.16125 1.13375,-0.1625 1.89375,0.675 1.75625,1.30875 0,0 2.45375,0.31 1.725,1.93 0,0 -0.08,1.2375 -1.9425,0.66 0,0 -1.94375,-0.33625 -2.025,1.12125 -0.0813,1.4575 0.81,1.53875 0.81,1.53875 0,0 0.94875,0.27375 1.1825,0.805 0,0 0.40125,0.9975 -0.69625,1.22 -1.09875,0.22125 -1.29625,0.2425 -1.29625,0.2425 0,0 0.47375,0.22375 1.17375,0.61 1.59875,0.8825 4.38,2.615 5.42375,4.48125 l -2.465,0.33375 c 0,0 3.1525,3.7525 5.9475,4.91375 0,0 0.30625,0.565 2.31,0.0263 2.0025,-0.5375 2.6725,-0.6475 2.6725,-0.6475 0,0 -1.04125,1.45875 -1.0475,2.47125"
           style="fill:#c4c20d;fill-opacity:1;fill-rule:nonzero;stroke:none"
           id="path41-3" />
        <path
           inkscape:connector-curvature="0"
           d="m 352.50357,459.35589 c -0.845,-0.41625 -1.505,-1.12 -1.44375,-1.6 0.0612,-0.47875 0.3675,-1.2275 0.3675,-1.2275 -0.9475,-0.24875 -4.03,1.485 -4.03,1.485 l -0.4725,-1.42875 c -1.32125,0.61625 -1.75625,3.59375 -1.75625,3.59375 -0.41125,1.64375 -2.61125,3.5125 -3.79125,4.41625 -0.44875,0.34375 -0.75,0.54875 -0.75,0.54875 l 2.115,2.38375 c 0.40875,-0.26375 3.7225,-2.65125 5.34125,-2.57 1.5225,0.075 1.8275,-0.315 1.86,-0.3625 10e-4,-0.003 0.002,-0.004 0.002,-0.004 -0.1625,-3.6875 2.6325,-2.90125 2.6325,-2.90125 l -0.075,-2.33375"
           style="fill:#c4c20d;fill-opacity:1;fill-rule:nonzero;stroke:none"
           id="path43-2" />
        <path
           inkscape:connector-curvature="0"
           d="m 336.71857,460.41089 c 0,0 1.2425,-0.3125 3.2675,0.74 2.02375,1.0525 2.29,0.8325 2.29,0.8325 0,0 -1.4,1.59625 -2.695,0.78625 -1.29625,-0.80875 -1.92,-1.80375 -2.8625,-2.35875"
           style="fill:#c4c20d;fill-opacity:1;fill-rule:nonzero;stroke:none"
           id="path45-1" />
        <path
           inkscape:connector-curvature="0"
           d="m 327.82607,467.98714 c -0.0113,1.53125 -0.0412,4.03 -0.15,4.905 4.7775,-0.405 9.44875,3.135 9.44875,3.135 0,0 8.05375,-1.595 12.34,0.14625 0.005,-1.0125 1.0475,-2.47125 1.0475,-2.47125 0,0 -0.67,0.11 -2.6725,0.6475 -2.00375,0.53875 -2.31,-0.0263 -2.31,-0.0263 -2.79625,-1.16125 -5.9475,-4.91375 -5.9475,-4.91375 l 2.465,-0.33375 c -1.04375,-1.86625 -3.82625,-3.59875 -5.42375,-4.48125 -0.70125,-0.38625 -1.17375,-0.61 -1.17375,-0.61 0,0 0.1975,-0.0213 1.295,-0.2425 1.0975,-0.2225 0.6975,-1.22 0.6975,-1.22 -0.23375,-0.53125 -1.1825,-0.805 -1.1825,-0.805 0,0 -0.89125,-0.0812 -0.81,-1.53875 0.0813,-1.4575 2.025,-1.12125 2.025,-1.12125 1.8625,0.5775 1.9425,-0.66 1.9425,-0.66 0.72875,-1.62 -1.725,-1.93 -1.725,-1.93 0.1375,-0.63375 -0.62375,-1.47125 -1.75625,-1.30875 -1.13375,0.16125 -2.75375,0.2425 -3.0775,0.16125 -0.32375,-0.08 -1.30625,-0.46375 -1.30625,-0.46375 -0.33375,0.265 0.24875,1.10375 0.24875,1.10375 -0.57,-0.007 -2.78625,3.7 -2.78625,3.7 0.20375,0.77625 1.50625,1.66625 1.50625,1.66625 -0.0688,2.03625 -1.16375,3.265 -1.16375,3.265 l -0.004,0.004 c -0.0312,0.0462 -0.28625,0.4375 -0.22,0.8475 0.07,0.43875 0.9825,1.19125 0.9825,1.19125 -0.0687,0.30125 -2.3125,1.68375 -2.29,1.35375"
           style="fill:#c4c20d;fill-opacity:1;fill-rule:nonzero;stroke:none"
           id="path47-9" />
        <path
           inkscape:connector-curvature="0"
           d="m 309.77982,498.07089 1.41125,0 c 1.33,0 1.46625,0.355 1.46625,1.795 0,0.8825 -0.1175,1.265 -0.865,1.49375 l 0,0.0175 c 0.62,0.0638 0.82875,0.3825 0.82875,1.0025 l 0,1.43 c 0,0.23625 0,0.565 0.055,0.8375 l -0.85625,0 c -0.0913,-0.16375 -0.11,-0.3275 -0.11,-0.59125 l 0,-1.485 c 0,-0.62 -0.10875,-0.78375 -0.71,-0.78375 l -0.31,0 0,2.86 -0.91,0 0,-6.57625 z m 0.91,2.95125 0.2375,0 c 0.71875,0 0.82,-0.13625 0.82,-1.12 0,-0.975 -0.055,-1.06625 -0.62,-1.06625 l -0.4375,0 0,2.18625"
           style="fill:#c4c20d;fill-opacity:1;fill-rule:nonzero;stroke:none"
           id="path49-7" />
        <path
           inkscape:connector-curvature="0"
           d="m 318.31357,498.07089 2.4775,0 0,0.765 -1.56625,0 0,2.05875 1.475,0 0,0.765 -1.475,0 0,2.2225 1.56625,0 0,0.765 -2.4775,0 0,-6.57625"
           style="fill:#c4c20d;fill-opacity:1;fill-rule:nonzero;stroke:none"
           id="path51-5" />
        <path
           inkscape:connector-curvature="0"
           d="m 328.03357,499.81089 0,-0.3375 c 0,-0.46375 -0.2275,-0.74625 -0.5825,-0.74625 -0.42,0 -0.62875,0.3825 -0.62875,1.08375 l 0,3.315 c 0,0.52875 0.255,0.86625 0.62875,0.86625 0.255,0 0.46375,-0.0375 0.5825,-0.0638 l 0,-1.93125 -0.60125,0 0,-0.765 1.5125,0 0,3.30625 c -0.35625,0.0813 -0.98375,0.16375 -1.50375,0.16375 -1.15625,0 -1.53,-0.61 -1.53,-1.63 l 0,-3.325 c 0,-1.23 0.37375,-1.73125 1.54875,-1.73125 0.97375,0 1.485,0.35625 1.485,1.19375 l 0,0.60125 -0.91125,0"
           style="fill:#c4c20d;fill-opacity:1;fill-rule:nonzero;stroke:none"
           id="path53-2" />
        <path
           inkscape:connector-curvature="0"
           d="m 334.75732,504.64714 0.91085,0 0,-6.57625 -0.91085,0 0,6.57625 z"
           style="fill:#c4c20d;fill-opacity:1;fill-rule:nonzero;stroke:none"
           id="path55-7" />
        <path
           inkscape:connector-curvature="0"
           d="m 341.45482,499.74714 c 0,-0.92 0.3,-1.73125 1.53875,-1.73125 1.175,0 1.54875,0.61125 1.54875,1.63125 l 0,3.32375 c 0,0.92 -0.3,1.73125 -1.54875,1.73125 -1.165,0 -1.53875,-0.61 -1.53875,-1.63 l 0,-3.325 z m 0.91,3.37875 c 0,0.565 0.255,0.86625 0.62875,0.86625 0.3825,0 0.6375,-0.30125 0.6375,-0.86625 l 0,-3.45125 c 0,-0.6475 -0.21875,-0.9475 -0.6375,-0.9475 -0.41,0 -0.62875,0.3 -0.62875,0.9475 l 0,3.45125"
           style="fill:#c4c20d;fill-opacity:1;fill-rule:nonzero;stroke:none"
           id="path57-5" />
        <path
           inkscape:connector-curvature="0"
           d="m 349.91732,498.07089 1.2575,0 1.075,5.465 0.0175,0 0,-5.465 0.85625,0 0,6.57625 -1.31125,0 -1.075,-5.61 -0.0175,0 0,5.61 -0.8025,0 0,-6.57625"
           style="fill:#c4c20d;fill-opacity:1;fill-rule:nonzero;stroke:none"
           id="path59-9" />
        <path
           inkscape:connector-curvature="0"
           d="m 309.73357,506.53589 1.26125,0 0,3.91 1.6775,0 0,-3.91 1.26125,0 0,9.105 -1.26125,0 0,-4.13625 -1.6775,0 0,4.13625 -1.26125,0 0,-9.105"
           style="fill:#c4c20d;fill-opacity:1;fill-rule:nonzero;stroke:none"
           id="path61-1" />
        <path
           inkscape:connector-curvature="0"
           d="m 321.09732,506.53589 1.4625,0 1.855,9.105 -1.26125,0 -0.41625,-2.32 -1.9675,0 -0.41625,2.32 -1.26125,0 2.005,-9.105 z m -0.13875,5.725 1.60125,0 -0.78125,-4.3875 -0.025,0 -0.795,4.3875"
           style="fill:#c4c20d;fill-opacity:1;fill-rule:nonzero;stroke:none"
           id="path63-1" />
        <path
           inkscape:connector-curvature="0"
           d="m 334.07107,513.58589 c 0,1.05875 -0.415,2.13125 -2.13125,2.13125 -1.7275,0 -2.14375,-1.0725 -2.14375,-2.13125 l 0,-7.05 1.26125,0 0,7.26375 c 0,0.61875 0.2275,0.93375 0.8825,0.93375 0.64375,0 0.87125,-0.315 0.87125,-0.93375 l 0,-7.26375 1.26,0 0,7.05"
           style="fill:#c4c20d;fill-opacity:1;fill-rule:nonzero;stroke:none"
           id="path65-6" />
        <path
           inkscape:connector-curvature="0"
           d="m 339.56732,506.53589 4.28875,0 0,1.06 -1.51375,0 0,8.045 -1.26125,0 0,-8.045 -1.51375,0 0,-1.06"
           style="fill:#c4c20d;fill-opacity:1;fill-rule:nonzero;stroke:none"
           id="path67-1" />
        <path
           inkscape:connector-curvature="0"
           d="m 349.64982,506.53589 3.43,0 0,1.06 -2.16875,0 0,2.85 2.0425,0 0,1.05875 -2.0425,0 0,3.0775 2.16875,0 0,1.05875 -3.43,0 0,-9.105"
           style="fill:#c4c20d;fill-opacity:1;fill-rule:nonzero;stroke:none"
           id="path69-8" />
        <path
           inkscape:connector-curvature="0"
           d="m 309.79857,517.61214 1.7225,0 1.47375,7.56625 0.025,0 0,-7.56625 1.17375,0 0,9.105 -1.79875,0 -1.4725,-7.76875 -0.025,0 0,7.76875 -1.09875,0 0,-9.105"
           style="fill:#c4c20d;fill-opacity:1;fill-rule:nonzero;stroke:none"
           id="path71-6" />
        <path
           inkscape:connector-curvature="0"
           d="m 314.79232,519.93214 c 0,-1.27375 0.4125,-2.39625 2.11,-2.39625 1.61125,0 2.1225,0.845 2.1225,2.2575 l 0,4.6025 c 0,1.27375 -0.41125,2.39625 -2.1225,2.39625 -1.5975,0 -2.11,-0.845 -2.11,-2.2575 l 0,-4.6025 z m 1.24875,4.67875 c 0,0.78125 0.35,1.1975 0.86125,1.1975 0.525,0 0.87375,-0.41625 0.87375,-1.1975 l 0,-4.78 c 0,-0.895 -0.29875,-1.31125 -0.87375,-1.31125 -0.56125,0 -0.86125,0.41625 -0.86125,1.31125 l 0,4.78"
           style="fill:#c4c20d;fill-opacity:1;fill-rule:nonzero;stroke:none"
           id="path73-3" />
        <path
           inkscape:connector-curvature="0"
           d="m 320.08607,517.61214 1.93625,0 c 1.8225,0 2.01,0.49125 2.01,2.48375 0,1.22375 -0.1625,1.7525 -1.18625,2.06875 l 0,0.025 c 0.84875,0.0875 1.13625,0.53 1.13625,1.3875 l 0,1.98 c 0,0.3275 0,0.78125 0.075,1.16 l -1.17375,0 c -0.125,-0.2275 -0.15,-0.455 -0.15,-0.82 l 0,-2.05625 c 0,-0.8575 -0.15,-1.08375 -0.97375,-1.08375 l -0.425,0 0,3.96 -1.24875,0 0,-9.105 z m 1.24875,4.085 0.325,0 c 0.98625,0 1.12375,-0.18875 1.12375,-1.55 0,-1.35 -0.075,-1.47625 -0.84875,-1.47625 l -0.6,0 0,3.02625"
           style="fill:#c4c20d;fill-opacity:1;fill-rule:nonzero;stroke:none"
           id="path75-7" />
        <path
           inkscape:connector-curvature="0"
           d="m 324.98232,517.61214 1.8875,0 1.0925,6.935 0.0238,0 1.0925,-6.935 1.84,0 0,9.105 -1.11625,0 0,-8.1975 -0.0238,0 -1.21125,8.1975 -1.18625,0 -1.33,-8.1975 -0.0238,0 0,8.1975 -1.045,0 0,-9.105"
           style="fill:#c4c20d;fill-opacity:1;fill-rule:nonzero;stroke:none"
           id="path77-5" />
        <path
           inkscape:connector-curvature="0"
           d="m 333.35107,517.61214 1.405,0 1.78125,9.105 -1.21125,0 -0.4,-2.32125 -1.89,0 -0.4,2.32125 -1.21125,0 1.92625,-9.105 z m -0.13375,5.725 1.53875,0 -0.75125,-4.38875 -0.0238,0 -0.76375,4.38875"
           style="fill:#c4c20d;fill-opacity:1;fill-rule:nonzero;stroke:none"
           id="path79-3" />
        <path
           inkscape:connector-curvature="0"
           d="m 336.94857,517.61214 1.72375,0 1.4725,7.56625 0.025,0 0,-7.56625 1.17375,0 0,9.105 -1.7975,0 -1.47375,-7.76875 -0.025,0 0,7.76875 -1.09875,0 0,-9.105"
           style="fill:#c4c20d;fill-opacity:1;fill-rule:nonzero;stroke:none"
           id="path81-0" />
        <path
           inkscape:connector-curvature="0"
           d="m 342.26482,517.61214 2.01,0 c 2.0225,0 2.185,0.68 2.185,3.32875 l 0,2.71125 c 0,2.3325 -0.41125,3.065 -2.385,3.065 l -1.81,0 0,-9.105 z m 1.24875,8.045 0.59875,0 c 0.92375,0 1.09875,-0.49125 1.09875,-2.055 l 0,-3.1275 c 0,-1.35 -0.1375,-1.80375 -1.19875,-1.80375 l -0.49875,0 0,6.98625"
           style="fill:#c4c20d;fill-opacity:1;fill-rule:nonzero;stroke:none"
           id="path83-3" />
        <path
           inkscape:connector-curvature="0"
           d="m 347.04607,526.71714 1.24849,0 0,-9.105 -1.24849,0 0,9.105 z"
           style="fill:#c4c20d;fill-opacity:1;fill-rule:nonzero;stroke:none"
           id="path85-8" />
        <path
           inkscape:connector-curvature="0"
           d="m 349.70607,517.61214 3.39625,0 0,1.05875 -2.1475,0 0,2.85 2.0225,0 0,1.06 -2.0225,0 0,3.07625 2.1475,0 0,1.06 -3.39625,0 0,-9.105"
           style="fill:#c4c20d;fill-opacity:1;fill-rule:nonzero;stroke:none"
           id="path87-7" />
      </g>
      <g
         inkscape:label="Calque 1"
         id="layer1-5"
         transform="matrix(9.0276319,0,0,9.0276319,1337.8355,-6051.3582)">
        <path
           inkscape:connector-curvature="0"
           d="m 326.45357,452.89839 c 0,0 -1.44875,0.55875 -3.47375,0.55875 -2.02375,0 -5.26375,-0.72875 -6.80125,-0.81 -1.53875,-0.08 -5.035,-0.10375 -5.95875,0.88 0,0 -0.14,1.1 -0.24625,2.0375 -0.105,0.93875 0.28875,3.8725 0.6975,6.9625 0.40875,3.09 0.69125,7.5175 0.0225,9.95375 -0.67,2.43625 -0.36625,8.1275 -0.185,9.49 0.1825,1.36125 0.9725,10.0325 -0.7275,13.59625 l 16.605,0 0,-12.3825 c 0,0 -3.83125,-0.7275 -5.68375,-0.0838 0,0 -0.31375,-3.16375 -0.07,-4.54 0.2425,-1.37625 0.365,-2.90875 0.365,-2.90875 0,0 4.02,0.04 5.47125,0.34125 l -0.015,-23.095"
           style="fill:#00a650;fill-opacity:1;fill-rule:nonzero;stroke:none"
           id="path31" />
        <path
           inkscape:connector-curvature="0"
           d="m 331.07857,487.87339 0,7.77375 c 0,0 0.81,-0.505 2.915,-0.08 1.79125,0.36125 4.7775,-0.1625 5.50625,-0.24375 0.72875,-0.08 4.13,-0.2425 7.69375,0.1625 3.5625,0.405 5.89,-0.46 5.89,-0.46 l 0,-7.6375 c 0,0 -1.43625,0.6475 -2.57,0.97125 -1.13375,0.32375 -2.91625,0.6475 -5.83125,-0.2425 -2.915,-0.89125 -4.45375,-0.5675 -5.9925,-0.1625 -1.53875,0.405 -4.21,0.72875 -5.34375,0.405 -1.13375,-0.32375 -2.2675,-0.48625 -2.2675,-0.48625"
           style="fill:#007dc5;fill-opacity:1;fill-rule:nonzero;stroke:none"
           id="path33" />
        <path
           inkscape:connector-curvature="0"
           d="m 353.10482,485.36339 0,-2.59125 c 0,0 -1.57875,0.6475 -3.0775,0.48625 -1.49875,-0.1625 -3.0775,-0.64875 -6.31625,-1.13375 -3.23875,-0.48625 -6.08875,0.56875 -7.4575,0.73 -1.36875,0.16 -3.9075,0.15875 -4.6625,-0.205 l 0,2.30875 c 0,0 1.5925,0.5675 4.99375,0.2425 3.40125,-0.32375 4.3375,-1.17375 6.8025,-0.56625 2.465,0.6075 5.1825,1.11875 5.91125,1.13375 2.065,0.04 3.80625,-0.405 3.80625,-0.405"
           style="fill:#007dc5;fill-opacity:1;fill-rule:nonzero;stroke:none"
           id="path35" />
        <path
           inkscape:connector-curvature="0"
           d="m 352.95232,481.09589 0.0713,-2.45375 c 0,0 -0.81,0.56625 -1.78125,0.32375 -0.9725,-0.2425 -4.52,-0.50875 -5.7825,-0.335 -1.2625,0.17375 -6.52625,0.82125 -8.875,0.65875 0,0 -5.215,0.14125 -8.68125,-0.82 -3.46625,-0.96125 -5.95375,-0.67 -5.95375,-0.67 0,0 -0.73125,2.45625 -0.255,3.1075 l 31.2575,0.18875"
           style="fill:#007dc5;fill-opacity:1;fill-rule:nonzero;stroke:none"
           id="path37" />
        <path
           inkscape:connector-curvature="0"
           d="m 327.67732,472.89214 0,2.75375 c 0,0 -0.24375,0.48625 0.81,0.89125 1.0525,0.40375 5.13,1.41 8.63875,-0.51 0,0 -4.67125,-3.54 -9.44875,-3.135"
           style="fill:#ed1c24;fill-opacity:1;fill-rule:nonzero;stroke:none"
           id="path39" />
        <path
           inkscape:connector-curvature="0"
           d="m 349.46607,476.17339 3.10875,0 c 0,0 -0.0775,-1.02875 -0.0925,-2.44125 l -0.001,-0.17625 c -0.007,-1.22875 0.0362,-2.71625 0.21875,-4.065 0.19625,-1.4575 0.17375,-3.34375 0.0975,-4.89625 -0.08,-1.63875 -0.21875,-2.905 -0.21875,-2.905 l -0.0225,0 -0.0762,-2.33375 0.015,-0.10875 c -0.06,-0.785 -0.40625,-5.55375 -0.11375,-6.59625 0,0 -4.7025,0.0775 -9.15625,-0.24625 -4.45375,-0.32375 -10.01125,-0.1525 -10.9575,-0.035 -0.94625,0.11625 -4.635,0.34625 -4.635,0.34625 0,0 -0.4325,3.61375 0.0487,7.64375 0.2225,1.85875 0.265,3.235 0.25,4.235 -0.0162,1.17 -0.1125,1.82625 -0.0925,2.14375 0,0 -0.004,0.29625 -0.0125,1.26 -0.0225,0.32875 2.2225,-1.06375 2.29125,-1.365 0,0 -0.91125,-0.7525 -0.9825,-1.19125 -0.0662,-0.41 0.18875,-0.80125 0.22125,-0.8475 l 0.002,-0.004 c 0,0 1.095,-1.22875 1.16375,-3.265 0,0 -1.30125,-0.89 -1.50625,-1.66625 0,0 2.21625,-3.7075 2.7875,-3.7 0,0 -0.58375,-0.83875 -0.25,-1.10375 0,0 0.9825,0.38375 1.30625,0.46375 0.32375,0.0813 1.94375,0 3.0775,-0.16125 1.13375,-0.1625 1.89375,0.675 1.75625,1.30875 0,0 2.45375,0.31 1.725,1.93 0,0 -0.08,1.2375 -1.9425,0.66 0,0 -1.94375,-0.33625 -2.025,1.12125 -0.0813,1.4575 0.81,1.53875 0.81,1.53875 0,0 0.94875,0.27375 1.1825,0.805 0,0 0.40125,0.9975 -0.69625,1.22 -1.09875,0.22125 -1.29625,0.2425 -1.29625,0.2425 0,0 0.47375,0.22375 1.17375,0.61 1.59875,0.8825 4.38,2.615 5.42375,4.48125 l -2.465,0.33375 c 0,0 3.1525,3.7525 5.9475,4.91375 0,0 0.30625,0.565 2.31,0.0263 2.0025,-0.5375 2.6725,-0.6475 2.6725,-0.6475 0,0 -1.04125,1.45875 -1.0475,2.47125"
           style="fill:#ed1c24;fill-opacity:1;fill-rule:nonzero;stroke:none"
           id="path41" />
        <path
           inkscape:connector-curvature="0"
           d="m 352.50357,459.35589 c -0.845,-0.41625 -1.505,-1.12 -1.44375,-1.6 0.0612,-0.47875 0.3675,-1.2275 0.3675,-1.2275 -0.9475,-0.24875 -4.03,1.485 -4.03,1.485 l -0.4725,-1.42875 c -1.32125,0.61625 -1.75625,3.59375 -1.75625,3.59375 -0.41125,1.64375 -2.61125,3.5125 -3.79125,4.41625 -0.44875,0.34375 -0.75,0.54875 -0.75,0.54875 l 2.115,2.38375 c 0.40875,-0.26375 3.7225,-2.65125 5.34125,-2.57 1.5225,0.075 1.8275,-0.315 1.86,-0.3625 10e-4,-0.003 0.002,-0.004 0.002,-0.004 -0.1625,-3.6875 2.6325,-2.90125 2.6325,-2.90125 l -0.075,-2.33375"
           style="fill:#fff200;fill-opacity:1;fill-rule:nonzero;stroke:none"
           id="path43" />
        <path
           inkscape:connector-curvature="0"
           d="m 336.71857,460.41089 c 0,0 1.2425,-0.3125 3.2675,0.74 2.02375,1.0525 2.29,0.8325 2.29,0.8325 0,0 -1.4,1.59625 -2.695,0.78625 -1.29625,-0.80875 -1.92,-1.80375 -2.8625,-2.35875"
           style="fill:#fff200;fill-opacity:1;fill-rule:nonzero;stroke:none"
           id="path45" />
        <path
           inkscape:connector-curvature="0"
           d="m 327.82607,467.98714 c -0.0113,1.53125 -0.0412,4.03 -0.15,4.905 4.7775,-0.405 9.44875,3.135 9.44875,3.135 0,0 8.05375,-1.595 12.34,0.14625 0.005,-1.0125 1.0475,-2.47125 1.0475,-2.47125 0,0 -0.67,0.11 -2.6725,0.6475 -2.00375,0.53875 -2.31,-0.0263 -2.31,-0.0263 -2.79625,-1.16125 -5.9475,-4.91375 -5.9475,-4.91375 l 2.465,-0.33375 c -1.04375,-1.86625 -3.82625,-3.59875 -5.42375,-4.48125 -0.70125,-0.38625 -1.17375,-0.61 -1.17375,-0.61 0,0 0.1975,-0.0213 1.295,-0.2425 1.0975,-0.2225 0.6975,-1.22 0.6975,-1.22 -0.23375,-0.53125 -1.1825,-0.805 -1.1825,-0.805 0,0 -0.89125,-0.0812 -0.81,-1.53875 0.0813,-1.4575 2.025,-1.12125 2.025,-1.12125 1.8625,0.5775 1.9425,-0.66 1.9425,-0.66 0.72875,-1.62 -1.725,-1.93 -1.725,-1.93 0.1375,-0.63375 -0.62375,-1.47125 -1.75625,-1.30875 -1.13375,0.16125 -2.75375,0.2425 -3.0775,0.16125 -0.32375,-0.08 -1.30625,-0.46375 -1.30625,-0.46375 -0.33375,0.265 0.24875,1.10375 0.24875,1.10375 -0.57,-0.007 -2.78625,3.7 -2.78625,3.7 0.20375,0.77625 1.50625,1.66625 1.50625,1.66625 -0.0688,2.03625 -1.16375,3.265 -1.16375,3.265 l -0.004,0.004 c -0.0312,0.0462 -0.28625,0.4375 -0.22,0.8475 0.07,0.43875 0.9825,1.19125 0.9825,1.19125 -0.0687,0.30125 -2.3125,1.68375 -2.29,1.35375"
           style="fill:#fff200;fill-opacity:1;fill-rule:nonzero;stroke:none"
           id="path47" />
        <path
           inkscape:connector-curvature="0"
           d="m 309.77982,498.07089 1.41125,0 c 1.33,0 1.46625,0.355 1.46625,1.795 0,0.8825 -0.1175,1.265 -0.865,1.49375 l 0,0.0175 c 0.62,0.0638 0.82875,0.3825 0.82875,1.0025 l 0,1.43 c 0,0.23625 0,0.565 0.055,0.8375 l -0.85625,0 c -0.0913,-0.16375 -0.11,-0.3275 -0.11,-0.59125 l 0,-1.485 c 0,-0.62 -0.10875,-0.78375 -0.71,-0.78375 l -0.31,0 0,2.86 -0.91,0 0,-6.57625 z m 0.91,2.95125 0.2375,0 c 0.71875,0 0.82,-0.13625 0.82,-1.12 0,-0.975 -0.055,-1.06625 -0.62,-1.06625 l -0.4375,0 0,2.18625"
           style="fill:#ebebeb;fill-opacity:1;fill-rule:nonzero;stroke:none"
           id="path49" />
        <path
           inkscape:connector-curvature="0"
           d="m 318.31357,498.07089 2.4775,0 0,0.765 -1.56625,0 0,2.05875 1.475,0 0,0.765 -1.475,0 0,2.2225 1.56625,0 0,0.765 -2.4775,0 0,-6.57625"
           style="fill:#ebebeb;fill-opacity:1;fill-rule:nonzero;stroke:none"
           id="path51" />
        <path
           inkscape:connector-curvature="0"
           d="m 328.03357,499.81089 0,-0.3375 c 0,-0.46375 -0.2275,-0.74625 -0.5825,-0.74625 -0.42,0 -0.62875,0.3825 -0.62875,1.08375 l 0,3.315 c 0,0.52875 0.255,0.86625 0.62875,0.86625 0.255,0 0.46375,-0.0375 0.5825,-0.0638 l 0,-1.93125 -0.60125,0 0,-0.765 1.5125,0 0,3.30625 c -0.35625,0.0813 -0.98375,0.16375 -1.50375,0.16375 -1.15625,0 -1.53,-0.61 -1.53,-1.63 l 0,-3.325 c 0,-1.23 0.37375,-1.73125 1.54875,-1.73125 0.97375,0 1.485,0.35625 1.485,1.19375 l 0,0.60125 -0.91125,0"
           style="fill:#ebebeb;fill-opacity:1;fill-rule:nonzero;stroke:none"
           id="path53" />
        <path
           inkscape:connector-curvature="0"
           d="m 334.75732,504.64714 0.91085,0 0,-6.57625 -0.91085,0 0,6.57625 z"
           style="fill:#ebebeb;fill-opacity:1;fill-rule:nonzero;stroke:none"
           id="path55" />
        <path
           inkscape:connector-curvature="0"
           d="m 341.45482,499.74714 c 0,-0.92 0.3,-1.73125 1.53875,-1.73125 1.175,0 1.54875,0.61125 1.54875,1.63125 l 0,3.32375 c 0,0.92 -0.3,1.73125 -1.54875,1.73125 -1.165,0 -1.53875,-0.61 -1.53875,-1.63 l 0,-3.325 z m 0.91,3.37875 c 0,0.565 0.255,0.86625 0.62875,0.86625 0.3825,0 0.6375,-0.30125 0.6375,-0.86625 l 0,-3.45125 c 0,-0.6475 -0.21875,-0.9475 -0.6375,-0.9475 -0.41,0 -0.62875,0.3 -0.62875,0.9475 l 0,3.45125"
           style="fill:#ebebeb;fill-opacity:1;fill-rule:nonzero;stroke:none"
           id="path57" />
        <path
           inkscape:connector-curvature="0"
           d="m 349.91732,498.07089 1.2575,0 1.075,5.465 0.0175,0 0,-5.465 0.85625,0 0,6.57625 -1.31125,0 -1.075,-5.61 -0.0175,0 0,5.61 -0.8025,0 0,-6.57625"
           style="fill:#ebebeb;fill-opacity:1;fill-rule:nonzero;stroke:none"
           id="path59" />
        <path
           inkscape:connector-curvature="0"
           d="m 309.73357,506.53589 1.26125,0 0,3.91 1.6775,0 0,-3.91 1.26125,0 0,9.105 -1.26125,0 0,-4.13625 -1.6775,0 0,4.13625 -1.26125,0 0,-9.105"
           style="fill:#ebebeb;fill-opacity:1;fill-rule:nonzero;stroke:none"
           id="path61" />
        <path
           inkscape:connector-curvature="0"
           d="m 321.09732,506.53589 1.4625,0 1.855,9.105 -1.26125,0 -0.41625,-2.32 -1.9675,0 -0.41625,2.32 -1.26125,0 2.005,-9.105 z m -0.13875,5.725 1.60125,0 -0.78125,-4.3875 -0.025,0 -0.795,4.3875"
           style="fill:#ebebeb;fill-opacity:1;fill-rule:nonzero;stroke:none"
           id="path63" />
        <path
           inkscape:connector-curvature="0"
           d="m 334.07107,513.58589 c 0,1.05875 -0.415,2.13125 -2.13125,2.13125 -1.7275,0 -2.14375,-1.0725 -2.14375,-2.13125 l 0,-7.05 1.26125,0 0,7.26375 c 0,0.61875 0.2275,0.93375 0.8825,0.93375 0.64375,0 0.87125,-0.315 0.87125,-0.93375 l 0,-7.26375 1.26,0 0,7.05"
           style="fill:#ebebeb;fill-opacity:1;fill-rule:nonzero;stroke:none"
           id="path65" />
        <path
           inkscape:connector-curvature="0"
           d="m 339.56732,506.53589 4.28875,0 0,1.06 -1.51375,0 0,8.045 -1.26125,0 0,-8.045 -1.51375,0 0,-1.06"
           style="fill:#ebebeb;fill-opacity:1;fill-rule:nonzero;stroke:none"
           id="path67" />
        <path
           inkscape:connector-curvature="0"
           d="m 349.64982,506.53589 3.43,0 0,1.06 -2.16875,0 0,2.85 2.0425,0 0,1.05875 -2.0425,0 0,3.0775 2.16875,0 0,1.05875 -3.43,0 0,-9.105"
           style="fill:#ebebeb;fill-opacity:1;fill-rule:nonzero;stroke:none"
           id="path69" />
        <path
           inkscape:connector-curvature="0"
           d="m 309.79857,517.61214 1.7225,0 1.47375,7.56625 0.025,0 0,-7.56625 1.17375,0 0,9.105 -1.79875,0 -1.4725,-7.76875 -0.025,0 0,7.76875 -1.09875,0 0,-9.105"
           style="fill:#ebebeb;fill-opacity:1;fill-rule:nonzero;stroke:none"
           id="path71" />
        <path
           inkscape:connector-curvature="0"
           d="m 314.79232,519.93214 c 0,-1.27375 0.4125,-2.39625 2.11,-2.39625 1.61125,0 2.1225,0.845 2.1225,2.2575 l 0,4.6025 c 0,1.27375 -0.41125,2.39625 -2.1225,2.39625 -1.5975,0 -2.11,-0.845 -2.11,-2.2575 l 0,-4.6025 z m 1.24875,4.67875 c 0,0.78125 0.35,1.1975 0.86125,1.1975 0.525,0 0.87375,-0.41625 0.87375,-1.1975 l 0,-4.78 c 0,-0.895 -0.29875,-1.31125 -0.87375,-1.31125 -0.56125,0 -0.86125,0.41625 -0.86125,1.31125 l 0,4.78"
           style="fill:#ebebeb;fill-opacity:1;fill-rule:nonzero;stroke:none"
           id="path73" />
        <path
           inkscape:connector-curvature="0"
           d="m 320.08607,517.61214 1.93625,0 c 1.8225,0 2.01,0.49125 2.01,2.48375 0,1.22375 -0.1625,1.7525 -1.18625,2.06875 l 0,0.025 c 0.84875,0.0875 1.13625,0.53 1.13625,1.3875 l 0,1.98 c 0,0.3275 0,0.78125 0.075,1.16 l -1.17375,0 c -0.125,-0.2275 -0.15,-0.455 -0.15,-0.82 l 0,-2.05625 c 0,-0.8575 -0.15,-1.08375 -0.97375,-1.08375 l -0.425,0 0,3.96 -1.24875,0 0,-9.105 z m 1.24875,4.085 0.325,0 c 0.98625,0 1.12375,-0.18875 1.12375,-1.55 0,-1.35 -0.075,-1.47625 -0.84875,-1.47625 l -0.6,0 0,3.02625"
           style="fill:#ebebeb;fill-opacity:1;fill-rule:nonzero;stroke:none"
           id="path75" />
        <path
           inkscape:connector-curvature="0"
           d="m 324.98232,517.61214 1.8875,0 1.0925,6.935 0.0238,0 1.0925,-6.935 1.84,0 0,9.105 -1.11625,0 0,-8.1975 -0.0238,0 -1.21125,8.1975 -1.18625,0 -1.33,-8.1975 -0.0238,0 0,8.1975 -1.045,0 0,-9.105"
           style="fill:#ebebeb;fill-opacity:1;fill-rule:nonzero;stroke:none"
           id="path77" />
        <path
           inkscape:connector-curvature="0"
           d="m 333.35107,517.61214 1.405,0 1.78125,9.105 -1.21125,0 -0.4,-2.32125 -1.89,0 -0.4,2.32125 -1.21125,0 1.92625,-9.105 z m -0.13375,5.725 1.53875,0 -0.75125,-4.38875 -0.0238,0 -0.76375,4.38875"
           style="fill:#ebebeb;fill-opacity:1;fill-rule:nonzero;stroke:none"
           id="path79" />
        <path
           inkscape:connector-curvature="0"
           d="m 336.94857,517.61214 1.72375,0 1.4725,7.56625 0.025,0 0,-7.56625 1.17375,0 0,9.105 -1.7975,0 -1.47375,-7.76875 -0.025,0 0,7.76875 -1.09875,0 0,-9.105"
           style="fill:#ebebeb;fill-opacity:1;fill-rule:nonzero;stroke:none"
           id="path81" />
        <path
           inkscape:connector-curvature="0"
           d="m 342.26482,517.61214 2.01,0 c 2.0225,0 2.185,0.68 2.185,3.32875 l 0,2.71125 c 0,2.3325 -0.41125,3.065 -2.385,3.065 l -1.81,0 0,-9.105 z m 1.24875,8.045 0.59875,0 c 0.92375,0 1.09875,-0.49125 1.09875,-2.055 l 0,-3.1275 c 0,-1.35 -0.1375,-1.80375 -1.19875,-1.80375 l -0.49875,0 0,6.98625"
           style="fill:#ebebeb;fill-opacity:1;fill-rule:nonzero;stroke:none"
           id="path83" />
        <path
           inkscape:connector-curvature="0"
           d="m 347.04607,526.71714 1.24849,0 0,-9.105 -1.24849,0 0,9.105 z"
           style="fill:#ebebeb;fill-opacity:1;fill-rule:nonzero;stroke:none"
           id="path85" />
        <path
           inkscape:connector-curvature="0"
           d="m 349.70607,517.61214 3.39625,0 0,1.05875 -2.1475,0 0,2.85 2.0225,0 0,1.06 -2.0225,0 0,3.07625 2.1475,0 0,1.06 -3.39625,0 0,-9.105"
           style="fill:#ebebeb;fill-opacity:1;fill-rule:nonzero;stroke:none"
           id="path87" />
      </g>
    </g>
    <g
       id="g8439"
       transform="translate(49.817415,-3160.6304)">
      <flowRoot
         transform="translate(2041.8741,2713.7561)"
         id="flowRoot4345"
         xml:space="preserve"
         style="font-style:italic;font-variant:normal;font-weight:bold;font-stretch:normal;font-size:200px;line-height:125%;font-family:'URW Chancery L';-inkscape-font-specification:'URW Chancery L Bold Italic';text-align:justify;letter-spacing:0px;word-spacing:0px;text-anchor:start;display:inline;fill:#000000;fill-opacity:1;stroke:none"><flowRegion
           id="flowRegion4347"><rect
             width="1767.7483"
             height="81.006317"
             x="-1250.4628"
             y="1390.3456"
             id="rect4349"
             style="text-align:justify;text-anchor:start" /></flowRegion><flowPara
           id="flowPara4373"
           style="color:#000000;font-style:normal;font-variant:normal;font-weight:300;font-stretch:normal;font-size:40px;line-height:138.99999857%;font-family:'Exo 2.0';-inkscape-font-specification:'Exo 2.0 Light';text-indent:0;text-align:start;text-decoration:none;text-decoration-line:none;letter-spacing:0;word-spacing:0;text-transform:none;direction:ltr;block-progression:tb;writing-mode:lr-tb;baseline-shift:baseline;text-anchor:start;display:inline;overflow:visible;visibility:visible;fill:#d1d1d1;fill-opacity:1;fill-rule:nonzero;stroke:none;marker:none;enable-background:accumulate">Faironnerie ABC, fablab de l'universit du Havre &lt;contact@faironnerie-abc.xyz&gt;</flowPara><flowPara
           id="flowPara4376"
           style="color:#000000;font-style:normal;font-variant:normal;font-weight:normal;font-stretch:normal;font-size:40px;line-height:138.99999857%;font-family:Ubuntu;-inkscape-font-specification:Ubuntu;text-indent:0;text-align:justify;text-decoration:none;text-decoration-line:none;letter-spacing:0;word-spacing:0;text-transform:none;direction:ltr;block-progression:tb;writing-mode:lr-tb;baseline-shift:baseline;text-anchor:start;display:inline;overflow:visible;visibility:visible;fill:#0000c5;fill-opacity:1;fill-rule:nonzero;stroke:none;marker:none;enable-background:accumulate" /><flowPara
           id="flowPara4378"
           style="color:#000000;font-style:normal;font-variant:normal;font-weight:normal;font-stretch:normal;font-size:40px;line-height:138.99999857%;font-family:Ubuntu;-inkscape-font-specification:Ubuntu;text-indent:0;text-align:justify;text-decoration:none;text-decoration-line:none;letter-spacing:0;word-spacing:0;text-transform:none;direction:ltr;block-progression:tb;writing-mode:lr-tb;baseline-shift:baseline;text-anchor:start;display:inline;overflow:visible;visibility:visible;fill:#0000c5;fill-opacity:1;fill-rule:nonzero;stroke:none;marker:none;enable-background:accumulate" /><flowPara
           id="flowPara4380"
           style="color:#000000;font-style:normal;font-variant:normal;font-weight:normal;font-stretch:normal;font-size:40px;line-height:138.99999857%;font-family:Ubuntu;-inkscape-font-specification:Ubuntu;text-indent:0;text-align:justify;text-decoration:none;text-decoration-line:none;letter-spacing:0;word-spacing:0;text-transform:none;direction:ltr;block-progression:tb;writing-mode:lr-tb;baseline-shift:baseline;text-anchor:start;display:inline;overflow:visible;visibility:visible;fill:#0000c5;fill-opacity:1;fill-rule:nonzero;stroke:none;marker:none;enable-background:accumulate" /><flowPara
           id="flowPara4382"
           style="color:#000000;font-style:normal;font-variant:normal;font-weight:normal;font-stretch:normal;font-size:40px;line-height:138.99999857%;font-family:Ubuntu;-inkscape-font-specification:Ubuntu;text-indent:0;text-align:justify;text-decoration:none;text-decoration-line:none;letter-spacing:0;word-spacing:0;text-transform:none;direction:ltr;block-progression:tb;writing-mode:lr-tb;baseline-shift:baseline;text-anchor:start;display:inline;overflow:visible;visibility:visible;fill:#0000c5;fill-opacity:1;fill-rule:nonzero;stroke:none;marker:none;enable-background:accumulate" /><flowPara
           id="flowPara4384"
           style="color:#000000;font-style:normal;font-variant:normal;font-weight:normal;font-stretch:normal;font-size:40px;line-height:138.99999857%;font-family:Ubuntu;-inkscape-font-specification:Ubuntu;text-indent:0;text-align:justify;text-decoration:none;text-decoration-line:none;letter-spacing:0;word-spacing:0;text-transform:none;direction:ltr;block-progression:tb;writing-mode:lr-tb;baseline-shift:baseline;text-anchor:start;display:inline;overflow:visible;visibility:visible;fill:#0000c5;fill-opacity:1;fill-rule:nonzero;stroke:none;marker:none;enable-background:accumulate" /><flowPara
           id="flowPara4386"
           style="color:#000000;font-style:normal;font-variant:normal;font-weight:normal;font-stretch:normal;font-size:40px;line-height:138.99999857%;font-family:Ubuntu;-inkscape-font-specification:Ubuntu;text-indent:0;text-align:justify;text-decoration:none;text-decoration-line:none;letter-spacing:0;word-spacing:0;text-transform:none;direction:ltr;block-progression:tb;writing-mode:lr-tb;baseline-shift:baseline;text-anchor:start;display:inline;overflow:visible;visibility:visible;fill:#0000c5;fill-opacity:1;fill-rule:nonzero;stroke:none;marker:none;enable-background:accumulate" /></flowRoot>      <g
         style="opacity:0.75;fill:#efefef;fill-opacity:1"
         inkscape:export-ydpi="75"
         inkscape:export-xdpi="75"
         id="g5002"
         transform="matrix(0.04852208,0,0,0.04852208,647.26634,4118.3199)">
        <path
           id="path4211-7"
           transform="translate(-2254.5402,-367.18986)"
           d="m 3342.3477,452.58203 c -4.5158,-0.0856 -36.7673,73.61862 -51.6817,118.10742 -27.1737,81.0577 -39.6889,158.3461 -39.6719,245 0.018,90.8893 14.0069,173.53277 43.6621,257.94725 60.3933,171.9113 182.6319,319.3076 341.7012,412.0235 35.7393,20.8311 65.9325,35.3989 106.25,51.2656 75.8072,29.8333 149.6657,46.056 238.125,52.3027 3.4375,0.2425 8.7812,0.3902 11.875,0.3262 l 5.625,-0.1152 0,-37.9629 0,-37.9649 -8.125,-4.625 c -7.101,-4.0427 -22.0276,-12.6444 -71.25,-41.0586 -6.5313,-3.7703 -26.5,-15.2866 -44.375,-25.5918 -17.875,-10.3051 -33.2065,-19.2995 -34.0703,-19.9883 -1.24,-0.9888 -1.5031,-20.4613 -1.25,-92.6074 l 0.023,-6.5019 c 77.1069,1.1831 126.5757,-52.373 126.6954,-143.1289 3e-4,-137.2417 -111.2563,-312.73051 -248.4981,-391.96683 -137.2418,-79.23692 -248.4983,-32.21465 -248.498,105.02734 0.087,93.13119 52.007,207.05889 132.4004,295.92189 -1.2685,-0.9914 -2.5356,-1.984 -3.7891,-2.9981 0.028,6.9466 0.06,13.5181 0.066,22.3555 0.038,59.4735 -0.2095,69.1208 -1.8125,70.4512 -1.5351,1.274 -6.1433,-0.9504 -26.5625,-12.8184 -13.5879,-7.8975 -34.2676,-19.8545 -45.9551,-26.5722 -11.6875,-6.7177 -38.9688,-22.4357 -60.625,-34.9297 -21.6563,-12.4939 -42.6094,-24.547 -46.5625,-26.7832 -3.9531,-2.2363 -7.3253,-4.1658 -7.4941,-4.2871 -0.1687,-0.1215 -0.5906,-154.0074 -0.9375,-341.96879 l -0.6309,-341.74805 -31.875,-18.54688 c -17.5313,-10.20109 -32.2731,-18.55446 -32.7597,-18.56445 z m 237.7851,326.7168 105,60.62109 1,70.07813 c 0.5,20.28868 -2,39.84534 -7.5,55.66992 20.5,-7.16432 49.5,-7.92052 81.5,10.55469 70,40.41454 94.5,92.05864 94.5,183.55854 0,67.5 -20.5,122.1656 -134.5,56.3477 -36.5,-21.0733 -111,-70.0869 -140,-101.8301 l 0,-334.99997 z m 105,238.62107 0,105.5 c 11.5,8.1396 25,16.934 33,21.0528 21.5,10.913 28.5,4.455 28.5,-46.545 0,-42.5 -6.5,-54.7529 -30.5,-68.6093 -13,-7.5056 -22,-9.7023 -31,-11.3985 z"
           style="fill:#efefef;fill-opacity:1"
           inkscape:connector-curvature="0" />
        <path
           id="path4205-8"
           transform="translate(-2254.5402,-367.18986)"
           d="m 4028.9492,33.667969 c -46.2547,-0.04248 -96.8004,4.045112 -136.9668,11.455078 -3.4375,0.6342 -9.9063,1.786557 -14.375,2.560547 -7.9634,1.3793 -46.9805,10.364184 -54.375,12.521484 -27.5517,8.0378 -65.113,20.343219 -70.625,23.136719 -1.7188,0.8711 -5.375,2.289644 -8.125,3.152344 -2.75,0.8627 -8.375,3.114659 -12.5,5.005859 -4.125,1.8911 -11.7188,5.217225 -16.875,7.390625 -5.1563,2.173495 -10.2188,4.392545 -11.25,4.931645 -1.0313,0.539 -3.5625,1.86621 -5.625,2.94921 -2.0625,1.083 -10.3594,5.20757 -18.4375,9.16407 -8.0781,3.9565 -14.6875,7.6682 -14.6875,8.25 0,0.5817 -0.7967,1.05859 -1.7715,1.05859 -0.9748,0 -4.4904,1.43195 -7.8125,3.18164 -11.4449,6.0279 -25.0998,13.6972 -26.8183,15.0625 -0.9473,0.75261 -2.5907,1.67423 -3.6524,2.04883 -1.0617,0.3746 -5.7705,3.41436 -10.4629,6.75586 -4.6924,3.3415 -11.4163,7.69005 -14.9433,9.66406 -3.527,1.974 -7.9222,4.7865 -9.7656,6.25 -1.8434,1.4635 -5.2183,3.94537 -7.5,5.51367 -12.9466,8.8987 -14.9282,10.56642 -14.3497,12.07422 0.4143,1.0794 -0.4342,1.63672 -2.4902,1.63672 -1.7376,0 -4.8748,1.64861 -7.0879,3.72461 -2.1839,2.0486 -8.1895,6.82238 -13.3457,10.60937 -5.1563,3.78691 -10.7813,8.43874 -12.5,10.33594 -1.7188,1.8972 -5.9429,5.54818 -9.3867,8.11328 -3.4439,2.5651 -8.78,7.01327 -11.8594,9.88477 -3.0793,2.8714 -8.8397,8.11786 -12.8008,11.66016 -3.9612,3.5423 -7.2031,7.08755 -7.2031,7.87695 0,0.7894 -1.4359,2.20308 -3.1914,3.14258 -3.2892,1.7604 -30.2893,29.30332 -38.0586,38.82422 -2.4063,2.9487 -6.3438,7.46094 -8.75,10.02734 -2.4063,2.5664 -5.9042,6.53972 -7.7734,8.82812 -1.8693,2.2883 -6.088,7.36074 -9.375,11.27344 -5.3537,6.3727 -12.217,15.32479 -26.0371,33.95899 -2.4768,3.3396 -7.0688,10.0896 -10.2051,15 -3.1363,4.9104 -6.069,9.20893 -6.5156,9.55273 -1.6915,1.302 -8.8438,12.99579 -8.8438,14.45898 0,1.85771 11.2881,9.29102 14.1094,9.29102 1.1088,0 2.4658,0.75027 3.0156,1.66797 1.0262,1.713 11.2937,7.82516 33.8242,20.13477 l 12.8243,7.00585 5.3007,-3.14257 c 2.9153,-1.7291 6.707,-3.8513 8.4258,-4.7168 1.7187,-0.8655 5.9239,-3.40232 9.3457,-5.63672 3.4218,-2.2344 6.7445,-4.0625 7.3828,-4.0625 0.6383,0 2.9112,-1.3348 5.0508,-2.9668 2.1396,-1.632 8.5883,-5.4289 14.3301,-8.4375 5.7417,-3.0087 13.0431,-6.96983 16.2266,-8.80273 3.1836,-1.833 8.4609,-4.79599 11.7265,-6.58399 3.2656,-1.788 5.9375,-4.13208 5.9375,-5.20898 0,-1.077 0.7031,-1.69354 1.5625,-1.36914 1.5021,0.567 18.3237,-7.77987 22.1875,-11.00977 1.0312,-0.8621 6.375,-3.95429 11.875,-6.87109 5.5,-2.9168 14.5,-7.94749 20,-11.17969 5.5,-3.2321 15.3437,-8.90552 21.875,-12.60742 6.5312,-3.7019 13.7811,-8.02136 16.1114,-9.59765 2.3303,-1.57621 4.9554,-2.86524 5.8339,-2.86524 0.8785,0 5.9482,2.57029 11.2637,5.71289 7.3144,4.3244 10.4533,5.53189 12.9141,4.96289 2.0215,-0.4674 2.6408,-0.34242 1.6367,0.33008 -1.1837,0.7928 -0.3493,1.9197 3.125,4.2207 8.3216,5.5115 17.4345,11.02344 18.2246,11.02344 0.4209,0 3.1843,1.6157 6.1406,3.5918 2.9564,1.9761 6.7812,4.01193 8.5,4.52344 1.7187,0.5115 3.9885,1.68567 5.0449,2.60937 2.2709,1.9856 14.9503,9.55175 23.3184,14.07617 -34.3076,69.35095 -1.6988,145.22947 89.3809,197.625 137.3996,78.83421 360.1697,78.83562 497.5703,0.002 65.9822,-37.85759 103.0508,-89.20532 103.0508,-142.74415 -1e-4,-53.53882 -37.0685,-104.88461 -103.0508,-142.74218 -107.0172,-61.28733 -270.3158,-76.49012 -405.6172,-37.76172 0.6793,0.54594 -0.9211,1.45195 -4.2481,2.7832 -1.1924,-0.68936 -2.2233,-1.30007 -2.8066,-1.68359 -5.8386,-3.8387 -8.1339,-5.189 -16.3926,-9.6543 -4.4688,-2.4161 -10.9375,-6.06397 -14.375,-8.10547 -3.4375,-2.0415 -8.5,-4.90804 -11.25,-6.36914 -20.5291,-10.9077 -22.0854,-12.03392 -21.6445,-15.66992 0.3179,-2.62191 2.5875,-4.55426 11.6445,-9.91406 6.1875,-3.6616 12.9969,-7.47486 15.1309,-8.47266 2.134,-0.9978 6.2965,-3.56362 9.25,-5.70312 2.9535,-2.1395 5.8516,-3.89063 6.4414,-3.89063 0.9821,0 7.6192,-3.74266 32.6543,-18.41406 4.9634,-2.9087 11.5546,-6.70927 14.6484,-8.44727 6.1861,-3.4754 8.8404,-5.09079 14.1641,-8.61328 3.438,-2.27481 9.8884,-5.8125 20.1758,-11.06641 2.7302,-1.39439 9.8463,-5.5543 15.8144,-9.24609 5.9682,-3.6917 11.381,-6.71289 12.0293,-6.71289 0.6482,0 2.197,-1.125 3.4414,-2.5 1.2444,-1.375 2.9725,-2.5 3.8399,-2.5 0.8674,0 1.765,-0.4219 1.9941,-0.9375 0.2292,-0.5157 3.2285,-2.30762 6.666,-3.98242 3.4375,-1.6748 7.3864,-4.04312 8.7754,-5.26172 1.389,-1.2186 6.2083,-3.88498 10.709,-5.92578 4.5008,-2.0407 8.917,-4.594283 9.8144,-5.675782 2.4485,-2.950101 14.2942,-2.687088 17.2149,0.382812 1.2301,1.2927 5.33,4.00594 9.1113,6.02734 10.936,5.8462 21.5299,11.93774 26.0723,14.99414 2.3082,1.5531 7.0894,4.2516 10.625,5.9961 3.5355,1.7445 11.4902,6.31154 17.6777,10.14844 6.1875,3.837 15.75,9.48779 21.25,12.55859 5.5,3.0708 14.7231,8.35991 20.4961,11.75391 5.7729,3.394 10.948,6.17187 11.5,6.17187 0.552,0 3.4226,1.58618 6.3789,3.52539 13.8527,9.0867 17.7601,11.47461 18.7754,11.47461 0.6027,0 4.0214,1.8419 7.5977,4.0918 3.5764,2.25 7.9081,4.77623 9.6269,5.61523 1.7187,0.839 6.7729,3.82707 11.2324,6.63867 7.3881,4.6582 17.6185,9.9043 19.3125,9.9043 0.3755,0 3.106,1.84968 6.0665,4.10938 4.4063,3.3635 20.6728,12.95085 41.8398,24.66015 4.1497,2.2956 33.9173,19.62515 36.5488,21.27735 1.0312,0.6475 4.125,2.38558 6.875,3.86328 2.75,1.4776 13.1562,7.55782 23.125,13.51172 9.9687,5.9539 20.6044,11.90756 23.6348,13.23046 3.0305,1.3228 7.6672,3.96786 10.3027,5.87696 2.6355,1.9092 5.2892,3.4707 5.8985,3.4707 0.6093,0 1.7626,0.78815 2.5625,1.75195 0.7999,0.9638 2.9396,2.12624 4.7558,2.58203 1.8162,0.45581 4.9304,2.19895 6.9199,3.87305 1.9896,1.6741 4.6992,3.04297 6.0215,3.04297 1.3223,0 2.4043,0.50856 2.4043,1.13086 0,1.2822 23.1405,15.11914 25.2852,15.11914 0.7665,0 2.4726,0.9843 3.791,2.1875 1.318,1.2031 5.9081,4.1562 10.2012,6.5625 4.2932,2.4062 9.1646,5.27585 10.8261,6.37695 1.6615,1.1012 10.334,6.06591 19.2715,11.03321 8.9375,4.9674 23.8207,13.47043 33.0742,18.89453 12.4539,7.3 17.5735,9.67317 19.7032,9.13867 2.2812,-0.5726 2.7163,-0.30393 2.1035,1.29297 -0.425,1.1077 -0.1521,2.01367 0.6074,2.01367 0.7595,0 4.055,1.8979 7.3223,4.2168 3.2672,2.3188 9.5957,6.14224 14.0644,8.49804 4.4688,2.3558 9.5313,5.13945 11.25,6.18555 1.7188,1.0462 6.2188,3.78459 10,6.08399 3.7813,2.2993 8.8438,5.21913 11.25,6.49023 2.4063,1.2711 7.1875,3.97597 10.625,6.00977 3.4375,2.0338 8.1842,4.608 10.5469,5.7207 2.3625,1.1128 6.2039,3.4782 8.5371,5.25781 l 4.2422,3.23633 8.9609,-4.59375 c 10.5872,-5.4256 30.0733,-17.04659 34.7852,-20.74609 1.8274,-1.4348 4.1752,-2.60938 5.2168,-2.60938 1.0416,0 3.5647,-1.4063 5.6074,-3.125 2.0426,-1.7188 4.2286,-3.125 4.8574,-3.125 0.6287,0 2.1789,-0.75694 3.4434,-1.68164 2.2296,-1.6305 2.2259,-1.8092 -0.062,-5.9375 -1.2974,-2.341 -3.1589,-5.24337 -4.1367,-6.45117 -0.9778,-1.2079 -2.3902,-3.27781 -3.1387,-4.59961 -0.7485,-1.3219 -4.1738,-6.4553 -7.6113,-11.4082 -3.4375,-4.953 -6.8125,-9.91625 -7.5,-11.02735 -3.1516,-5.0937 -12.2852,-16.39453 -13.25,-16.39453 -0.591,0 -2.2817,-2.3907 -3.7578,-5.3125 -2.7095,-5.3629 -14.0341,-19.40747 -19.4395,-24.10937 -1.6105,-1.4008 -2.9277,-3.13919 -2.9277,-3.86329 0,-0.7242 -2.3906,-3.88473 -5.3125,-7.02343 -2.9219,-3.1386 -9.5313,-10.35882 -14.6875,-16.04493 -15.6941,-17.30699 -34.4726,-36.14648 -36.0293,-36.14648 -0.8092,0 -1.4707,-0.59401 -1.4707,-1.32031 0,-1.4899 -7.5099,-8.67969 -9.0664,-8.67969 -0.5556,0 -4.2284,-3.33486 -8.1602,-7.41016 -8.9819,-9.3099 -32.2029,-29.39675 -36.4512,-31.53125 -1.7581,-0.8833 -5.7441,-3.91994 -8.8574,-6.74804 -6.1881,-5.6215 -22.6019,-16.81055 -24.6601,-16.81055 -0.7083,0 -1.5951,-0.8005 -1.9707,-1.7793 -0.8824,-2.2994 -12.865,-11.13934 -23.2911,-17.18164 -4.4925,-2.6035 -9.2929,-5.61194 -10.6679,-6.68554 -5.5097,-4.302 -13.8525,-9.30908 -15.545,-9.33008 -0.987,-0.0125 -2.9557,-1.0685 -4.375,-2.3457 -1.4194,-1.2773 -5.6738,-3.92622 -9.455,-5.88672 -3.7813,-1.9605 -8.3187,-4.53797 -10.084,-5.72657 -2.8679,-1.931 -28.3788,-14.7781 -38.041,-19.1582 -2.0625,-0.935 -7.7706,-3.71503 -12.6836,-6.17773 -4.913,-2.462804 -9.5897,-4.478519 -10.3926,-4.478519 -0.8029,0 -4.6573,-1.474644 -8.5664,-3.277344 -9.0565,-4.1765 -35.7501,-14.792647 -41.4824,-16.498047 -2.4063,-0.7159 -11.8696,-3.872572 -21.0293,-7.013672 -9.1598,-3.1411 -17.7168,-5.710937 -19.0157,-5.710937 -1.2988,0 -5.3356,-1.073619 -8.9707,-2.386719 -11.5999,-4.1904 -41.7201,-11.644175 -53.4843,-13.234375 -3.0938,-0.4182 -8.3027,-1.400594 -11.5743,-2.183594 -4.5433,-1.08779 -6.3001,-1.072887 -7.4374,0.06445 -1.9936,1.9934 -3.4883,1.882935 -3.4883,-0.259765 0,-3.76529 -33.6879,-8.536953 -85.625,-12.126953 -13.921,-0.96223 -28.8615,-1.434961 -44.2793,-1.449219 l 0,0 z m 31.8946,68.333981 c 0.9279,0.0655 1.7636,0.97852 1.7636,2.19922 0,0.5729 -0.5289,1.04297 -1.1758,1.04297 -1.6966,0 -2.8123,-2.20695 -1.5195,-3.00586 0.3021,-0.18677 0.6223,-0.25818 0.9317,-0.23633 z m -125.1836,33.66211 c 0.1996,-0.0198 0.4394,0.0457 0.6972,0.20508 0.6875,0.4249 1.25,1.02102 1.25,1.32422 0,0.3031 -0.5625,0.55078 -1.25,0.55078 -0.6875,0 -1.25,-0.59612 -1.25,-1.32422 0,-0.455 0.2202,-0.72293 0.5528,-0.75586 z m 112.4746,160.8711 c 45.0521,17.80704 117.1357,52.8478 155.1797,74.67578 70.5816,40.49665 85.5999,76.68543 7.5097,121.49023 l -155.1797,89.03516 -83.5976,-47.96485 25.5312,-25.5625 c -38.5446,2.58489 -86.1013,-1.14767 -128.6504,-25.56054 -46.5538,-26.71056 -62.07,-63.18584 -15.0156,-90.1836 l 25.0274,-14.36132 c 40.0463,-22.97682 96.1109,-18.9556 147.1699,10.33984 l 78.0918,44.80469 2.0019,-1.14844 c 17.0197,-10.33957 17.5197,-18.66938 -4.5058,-31.30664 -26.0301,-14.93493 -66.0755,-37.33753 -110.627,-60.60156 l 57.0645,-43.65625 z m -542.9532,88.70898 c 0.728,0 0.9757,0.5625 0.5508,1.25 -0.4249,0.6875 -1.021,1.25 -1.3242,1.25 -0.3031,0 -0.5508,-0.5625 -0.5508,-1.25 0,-0.6875 0.5961,-1.25 1.3242,-1.25 z m 1075.5508,17.5 c 1.1124,0 1.6749,0.5625 1.25,1.25 -0.4249,0.6875 -0.9874,1.25 -1.25,1.25 -0.2626,0 -0.8251,-0.5625 -1.25,-1.25 -0.4249,-0.6875 0.1376,-1.25 1.25,-1.25 z m 46.7285,16.25 c 0.6875,0 1.5966,0.5625 2.0215,1.25 0.4249,0.6875 0.211,1.25 -0.4765,1.25 -0.6875,0 -1.5986,-0.5625 -2.0235,-1.25 -0.4249,-0.6875 -0.209,-1.25 0.4785,-1.25 z m -634.1562,14.91406 c -5.0978,0.11437 -9.806,1.38666 -13.7481,3.64844 l -8.0097,4.5957 c -9.0104,5.16978 -8.5104,12.92297 5.5058,20.96485 11.5134,6.60584 30.0355,11.48923 50.0586,14.36133 l 26.5313,-15.22266 -39.5469,-22.68945 c -7.0394,-4.0389 -14.2367,-5.80525 -20.791,-5.65821 z"
           style="fill:#efefef;fill-opacity:1"
           inkscape:connector-curvature="0" />
        <path
           id="path4203-5"
           transform="translate(-2254.5402,-367.18986)"
           d="m 4706.6484,441.13672 c -1.1909,0 -62.2147,35.15142 -64.7109,37.27539 -2.0519,1.74588 -2.1875,8.50735 -2.1875,109.01562 0,84.22088 -0.3344,107.42125 -1.5625,108.40625 -1.2798,1.0264 -15.0811,8.97043 -32.9023,19.07422 -39.8971,-64.85176 -127.8257,-71.7601 -225.9063,-15.26172 -137.2411,79.23697 -248.4964,254.72789 -248.4961,391.96872 8e-4,137.2398 111.2558,184.2603 248.4961,105.0254 89.441,-51.7222 170.4523,-146.4362 214.3125,-246.83396 24.5465,-14.04611 44.1306,-24.71564 44.7734,-24.31836 0.8671,0.5359 1.2852,39.06408 1.2852,118.20512 l 0,117.4082 -4.6875,3.0273 c -2.5781,1.6652 -22.6875,13.4103 -44.6875,26.0996 -110.9844,64.0144 -404.8721,233.7001 -477.5,275.7012 -26.8125,15.5058 -51.7031,29.8124 -55.3125,31.793 l -6.5625,3.6015 0,38.7735 0,38.7714 12.1875,-0.7988 c 96.002,-6.2978 175.9798,-24.501 258.4375,-58.8223 96.902,-40.3335 181.6057,-98.0784 256.875,-175.1191 56.744,-58.0794 101.7612,-121.5829 138.1387,-194.8672 42.973,-86.5711 66.8005,-169.35838 77.7109,-269.99998 2.7822,-25.6633 3.1807,-116.9913 0.625,-143.125 -7.8241,-80.0084 -24.7915,-149.96755 -53.9726,-222.52734 -7.9289,-19.71551 -32.937,-72.47266 -34.3536,-72.47266 z m -209.7695,326.16992 -10.5,71.0625 -76,43.87891 c -32,18.47521 -42,33.74804 -42,72.24804 0,39 10,42.72717 42,24.25196 17,-9.81496 49,-28.29198 80.5,-49.97852 l 9.5,60.01563 c -29.5,32.53184 -70.5,61.70364 -109,83.93164 -98,56.5803 -133,41.7871 -133,-54.7129 0,-96.49999 35.5,-151.99623 134,-208.86523 30.5,-17.60919 74.5,-39.01152 104.5,-41.83203 z"
           style="fill:#efefef;fill-opacity:1"
           inkscape:connector-curvature="0" />
      </g>
    </g>
  </g>
  <g
     inkscape:groupmode="layer"
     id="layer3"
     inkscape:label="Textes">
    <g
       id="g5061"
       transform="translate(-75.237414,-1791.5614)"
       style="filter:url(#filter5438)">
      <text
         sodipodi:linespacing="125%"
         id="text4294"
         y="2362.9875"
         x="1828.1898"
         style="font-style:normal;font-weight:normal;font-size:15px;line-height:125%;font-family:sans-serif;letter-spacing:0px;word-spacing:0px;fill:#000000;fill-opacity:1;stroke:none;stroke-width:1px;stroke-linecap:butt;stroke-linejoin:miter;stroke-opacity:1"
         xml:space="preserve"><tspan
           style="font-style:normal;font-variant:normal;font-weight:900;font-stretch:normal;font-size:187.5px;font-family:'Exo 2.0';-inkscape-font-specification:'Exo 2.0 Heavy';fill:#eaeaea;fill-opacity:1"
           y="2362.9875"
           x="1828.1898"
           id="tspan4296"
           sodipodi:role="line">arduicioles</tspan></text>
      <text
         sodipodi:linespacing="125%"
         id="text4294-9"
         y="2480.1538"
         x="2863.8455"
         style="font-style:normal;font-weight:normal;font-size:15px;line-height:125%;font-family:sans-serif;text-align:end;letter-spacing:0px;word-spacing:0px;text-anchor:end;fill:#000000;fill-opacity:1;stroke:none;stroke-width:1px;stroke-linecap:butt;stroke-linejoin:miter;stroke-opacity:1"
         xml:space="preserve"><tspan
           id="tspan4364"
           style="font-style:normal;font-variant:normal;font-weight:300;font-stretch:normal;font-size:112.5px;font-family:'Exo 2.0';-inkscape-font-specification:'Exo 2.0 Light';text-align:end;text-anchor:end;fill:#eaeaea;fill-opacity:1"
           y="2480.1538"
           x="2863.8455"
           sodipodi:role="line">un projet de la faironnerie ABC</tspan></text>
    </g>
  </g>
</svg>
